<?xml version="1.0" encoding="utf-8" standalone="no"?>
<!DOCTYPE svg PUBLIC "-//W3C//DTD SVG 1.1//EN"
  "http://www.w3.org/Graphics/SVG/1.1/DTD/svg11.dtd">
<svg xmlns:xlink="http://www.w3.org/1999/xlink" width="936pt" height="720pt" viewBox="0 0 936 720" xmlns="http://www.w3.org/2000/svg" version="1.1">
 <metadata>
  <rdf:RDF xmlns:dc="http://purl.org/dc/elements/1.1/" xmlns:cc="http://creativecommons.org/ns#" xmlns:rdf="http://www.w3.org/1999/02/22-rdf-syntax-ns#">
   <cc:Work>
    <dc:type rdf:resource="http://purl.org/dc/dcmitype/StillImage"/>
    <dc:date>2022-05-09T17:18:07.917131</dc:date>
    <dc:format>image/svg+xml</dc:format>
    <dc:creator>
     <cc:Agent>
      <dc:title>Matplotlib v3.5.1, https://matplotlib.org/</dc:title>
     </cc:Agent>
    </dc:creator>
   </cc:Work>
  </rdf:RDF>
 </metadata>
 <defs>
  <style type="text/css">*{stroke-linejoin: round; stroke-linecap: butt}</style>
 </defs>
 <g id="figure_1">
  <g id="patch_1">
   <path d="M 0 720 
L 936 720 
L 936 0 
L 0 0 
z
" style="fill: #ffffff"/>
  </g>
  <g id="axes_1">
   <g id="patch_2">
    <path d="M 117 338.4 
L 842.4 338.4 
L 842.4 86.4 
L 117 86.4 
z
" style="fill: #ffffff"/>
   </g>
   <g id="PolyCollection_1">
    <defs>
     <path id="md4d7dd361f" d="M 149.972727 -393.054545 
L 149.972727 -540.228099 
L 150.87609 -585.699174 
L 151.779452 -579.104132 
L 152.682814 -594.37686 
L 153.586177 -588.476033 
L 154.489539 -587.781818 
L 155.392902 -609.302479 
L 156.296264 -606.178512 
L 157.199626 -600.624793 
L 158.102989 -614.856198 
L 159.006351 -622.145455 
L 159.909714 -616.938843 
L 160.813076 -599.930579 
L 161.716438 -617.980165 
L 162.619801 -614.509091 
L 163.523163 -590.905785 
L 164.426526 -613.467769 
L 165.329888 -604.790083 
L 166.23325 -600.277686 
L 167.136613 -616.591736 
L 168.039975 -573.897521 
L 168.943337 -584.657851 
L 169.8467 -540.575207 
L 170.750062 -531.203306 
L 171.653425 -500.310744 
L 172.556787 -451.715702 
L 173.460149 -446.161983 
L 174.363512 -451.021488 
L 175.266874 -444.773554 
L 176.170237 -446.856198 
L 177.073599 -440.608264 
L 177.976961 -431.236364 
L 178.880324 -442.343802 
L 179.783686 -435.74876 
L 180.687049 -425.682645 
L 181.590411 -424.641322 
L 182.493773 -421.170248 
L 183.397136 -420.476033 
L 184.300498 -427.071074 
L 185.203861 -422.558678 
L 186.107223 -411.104132 
L 187.010585 -408.67438 
L 187.913948 -406.244628 
L 188.81731 -404.856198 
L 189.720672 -408.327273 
L 190.624035 -403.467769 
L 191.527397 -403.120661 
L 192.43076 -399.649587 
L 193.334122 -397.566942 
L 194.237484 -396.178512 
L 195.140847 -401.732231 
L 196.044209 -396.872727 
L 196.947572 -397.91405 
L 197.850934 -397.219835 
L 198.754296 -395.831405 
L 199.657659 -398.608264 
L 200.561021 -396.178512 
L 201.464384 -395.831405 
L 202.367746 -398.955372 
L 203.271108 -397.219835 
L 204.174471 -395.13719 
L 205.077833 -396.872727 
L 205.981196 -396.872727 
L 206.884558 -397.566942 
L 207.78792 -396.872727 
L 208.691283 -397.566942 
L 209.594645 -396.52562 
L 210.498007 -397.566942 
L 211.40137 -397.566942 
L 212.304732 -394.790083 
L 213.208095 -396.52562 
L 214.111457 -397.219835 
L 215.014819 -395.831405 
L 215.918182 -396.178512 
L 216.821544 -399.649587 
L 217.724907 -395.831405 
L 218.628269 -397.219835 
L 219.531631 -398.261157 
L 220.434994 -396.52562 
L 221.338356 -399.649587 
L 222.241719 -395.831405 
L 223.145081 -398.608264 
L 224.048443 -397.219835 
L 224.951806 -399.996694 
L 225.855168 -397.219835 
L 226.758531 -401.732231 
L 227.661893 -397.219835 
L 228.565255 -402.773554 
L 229.468618 -399.302479 
L 230.37198 -398.955372 
L 231.275342 -399.996694 
L 232.178705 -400.343802 
L 233.082067 -397.566942 
L 233.98543 -398.955372 
L 234.888792 -397.91405 
L 235.792154 -397.566942 
L 236.695517 -396.178512 
L 237.598879 -404.161983 
L 238.502242 -404.509091 
L 239.405604 -410.757025 
L 240.308966 -426.029752 
L 241.212329 -397.566942 
L 242.115691 -393.74876 
L 244.825778 -393.401653 
L 245.729141 -394.095868 
L 246.632503 -393.054545 
L 247.535866 -394.095868 
L 249.34259 -393.74876 
L 252.052677 -394.095868 
L 252.95604 -393.401653 
L 253.859402 -393.74876 
L 254.762765 -394.442975 
L 255.666127 -394.095868 
L 256.569489 -394.095868 
L 257.472852 -393.054545 
L 259.279577 -393.74876 
L 260.182939 -393.74876 
L 261.086301 -393.054545 
L 261.989664 -393.401653 
L 262.893026 -394.442975 
L 263.796389 -393.401653 
L 265.603113 -394.095868 
L 266.506476 -394.095868 
L 267.409838 -393.74876 
L 268.3132 -394.790083 
L 269.216563 -393.401653 
L 270.119925 -393.74876 
L 271.023288 -393.74876 
L 271.92665 -394.095868 
L 272.830012 -394.442975 
L 273.733375 -393.74876 
L 274.636737 -393.74876 
L 275.5401 -393.74876 
L 276.443462 -394.790083 
L 277.346824 -394.442975 
L 278.250187 -394.790083 
L 279.153549 -394.790083 
L 280.056912 -395.484298 
L 280.960274 -395.13719 
L 281.863636 -393.401653 
L 282.766999 -396.52562 
L 283.670361 -396.178512 
L 284.573724 -395.484298 
L 285.477086 -395.484298 
L 286.380448 -398.261157 
L 287.283811 -395.13719 
L 288.187173 -396.178512 
L 289.090535 -394.442975 
L 289.993898 -395.13719 
L 290.89726 -396.52562 
L 291.800623 -395.484298 
L 292.703985 -396.52562 
L 293.607347 -394.442975 
L 294.51071 -394.790083 
L 295.414072 -395.484298 
L 296.317435 -396.178512 
L 297.220797 -393.054545 
L 298.124159 -394.442975 
L 299.027522 -393.74876 
L 299.930884 -394.095868 
L 301.737609 -394.442975 
L 302.640971 -393.74876 
L 303.544334 -395.484298 
L 304.447696 -394.442975 
L 305.351059 -395.13719 
L 306.254421 -394.442975 
L 307.157783 -394.095868 
L 308.061146 -393.401653 
L 308.964508 -394.442975 
L 309.86787 -393.74876 
L 310.771233 -394.095868 
L 311.674595 -393.401653 
L 312.577958 -395.831405 
L 313.48132 -393.74876 
L 314.384682 -393.401653 
L 315.288045 -393.74876 
L 316.191407 -393.74876 
L 317.09477 -394.095868 
L 317.998132 -393.74876 
L 318.901494 -394.095868 
L 319.804857 -394.095868 
L 320.708219 -393.054545 
L 321.611582 -394.442975 
L 322.514944 -393.74876 
L 323.418306 -394.095868 
L 324.321669 -394.095868 
L 325.225031 -393.401653 
L 326.128394 -393.401653 
L 327.031756 -393.74876 
L 327.935118 -394.790083 
L 328.838481 -393.74876 
L 329.741843 -393.74876 
L 330.645205 -394.442975 
L 331.548568 -393.74876 
L 332.45193 -393.74876 
L 333.355293 -393.74876 
L 334.258655 -393.74876 
L 335.162017 -393.054545 
L 336.06538 -393.74876 
L 336.968742 -393.401653 
L 337.872105 -393.74876 
L 339.678829 -393.74876 
L 341.485554 -394.095868 
L 342.388917 -394.095868 
L 343.292279 -393.401653 
L 344.195641 -393.054545 
L 345.099004 -393.054545 
L 346.905729 -393.054545 
L 347.809091 -393.054545 
L 348.712453 -393.401653 
L 350.519178 -393.054545 
L 352.325903 -393.054545 
L 353.229265 -393.054545 
L 354.132628 -393.401653 
L 356.842715 -393.054545 
L 357.746077 -393.054545 
L 358.64944 -393.401653 
L 359.552802 -393.054545 
L 360.456164 -393.054545 
L 361.359527 -393.054545 
L 363.166252 -393.054545 
L 364.069614 -393.74876 
L 364.972976 -393.054545 
L 366.779701 -393.054545 
L 367.683064 -393.74876 
L 368.586426 -393.054545 
L 369.489788 -393.054545 
L 371.296513 -393.054545 
L 372.199875 -393.054545 
L 374.0066 -393.054545 
L 376.716687 -393.054545 
L 378.523412 -393.054545 
L 379.426775 -393.054545 
L 380.330137 -393.054545 
L 383.040224 -393.054545 
L 386.653674 -393.054545 
L 387.557036 -394.095868 
L 388.460399 -393.054545 
L 391.170486 -393.054545 
L 393.880573 -393.74876 
L 394.783935 -393.401653 
L 395.687298 -393.401653 
L 396.59066 -393.401653 
L 397.494022 -393.054545 
L 399.300747 -393.054545 
L 400.20411 -393.054545 
L 401.107472 -393.054545 
L 402.010834 -393.054545 
L 402.914197 -393.054545 
L 407.431009 -393.054545 
L 408.334371 -393.74876 
L 411.044458 -393.054545 
L 411.947821 -393.054545 
L 412.851183 -393.054545 
L 413.754545 -393.054545 
L 417.367995 -393.054545 
L 419.17472 -393.054545 
L 421.884807 -393.054545 
L 424.594894 -393.054545 
L 429.111706 -393.054545 
L 434.53188 -393.054545 
L 435.435243 -393.054545 
L 438.14533 -393.054545 
L 440.855417 -393.401653 
L 445.372229 -393.054545 
L 448.082316 -393.054545 
L 449.889041 -393.054545 
L 451.695766 -393.054545 
L 459.826027 -393.054545 
L 460.72939 -393.054545 
L 461.632752 -393.054545 
L 462.536115 -393.054545 
L 466.149564 -393.401653 
L 467.956289 -393.054545 
L 473.376463 -393.054545 
L 481.506725 -393.054545 
L 496.863885 -393.054545 
L 497.767248 -393.054545 
L 507.704234 -393.054545 
L 518.544583 -393.054545 
L 520.351308 -393.054545 
L 521.25467 -393.401653 
L 549.258904 -393.054545 
L 561.002615 -393.054545 
L 571.842964 -393.054545 
L 581.77995 -393.054545 
L 589.910212 -393.054545 
L 641.401868 -393.054545 
L 698.313699 -393.054545 
L 739.868369 -393.054545 
L 743.481818 -393.054545 
L 809.427273 -393.054545 
L 809.427273 -393.054545 
L 809.427273 -393.054545 
L 743.481818 -393.054545 
L 739.868369 -393.054545 
L 698.313699 -393.054545 
L 641.401868 -393.054545 
L 589.910212 -393.054545 
L 581.77995 -393.054545 
L 571.842964 -393.054545 
L 561.002615 -393.054545 
L 549.258904 -393.054545 
L 521.25467 -393.054545 
L 520.351308 -393.054545 
L 518.544583 -393.054545 
L 507.704234 -393.054545 
L 497.767248 -393.054545 
L 496.863885 -393.054545 
L 481.506725 -393.054545 
L 473.376463 -393.054545 
L 467.956289 -393.054545 
L 466.149564 -393.054545 
L 462.536115 -393.054545 
L 461.632752 -393.054545 
L 460.72939 -393.054545 
L 459.826027 -393.054545 
L 451.695766 -393.054545 
L 449.889041 -393.054545 
L 448.082316 -393.054545 
L 445.372229 -393.054545 
L 440.855417 -393.054545 
L 438.14533 -393.054545 
L 435.435243 -393.054545 
L 434.53188 -393.054545 
L 429.111706 -393.054545 
L 424.594894 -393.054545 
L 421.884807 -393.054545 
L 419.17472 -393.054545 
L 417.367995 -393.054545 
L 413.754545 -393.054545 
L 412.851183 -393.054545 
L 411.947821 -393.054545 
L 411.044458 -393.054545 
L 408.334371 -393.054545 
L 407.431009 -393.054545 
L 402.914197 -393.054545 
L 402.010834 -393.054545 
L 401.107472 -393.054545 
L 400.20411 -393.054545 
L 399.300747 -393.054545 
L 397.494022 -393.054545 
L 396.59066 -393.054545 
L 395.687298 -393.054545 
L 394.783935 -393.054545 
L 393.880573 -393.054545 
L 391.170486 -393.054545 
L 388.460399 -393.054545 
L 387.557036 -393.054545 
L 386.653674 -393.054545 
L 383.040224 -393.054545 
L 380.330137 -393.054545 
L 379.426775 -393.054545 
L 378.523412 -393.054545 
L 376.716687 -393.054545 
L 374.0066 -393.054545 
L 372.199875 -393.054545 
L 371.296513 -393.054545 
L 369.489788 -393.054545 
L 368.586426 -393.054545 
L 367.683064 -393.054545 
L 366.779701 -393.054545 
L 364.972976 -393.054545 
L 364.069614 -393.054545 
L 363.166252 -393.054545 
L 361.359527 -393.054545 
L 360.456164 -393.054545 
L 359.552802 -393.054545 
L 358.64944 -393.054545 
L 357.746077 -393.054545 
L 356.842715 -393.054545 
L 354.132628 -393.054545 
L 353.229265 -393.054545 
L 352.325903 -393.054545 
L 350.519178 -393.054545 
L 348.712453 -393.054545 
L 347.809091 -393.054545 
L 346.905729 -393.054545 
L 345.099004 -393.054545 
L 344.195641 -393.054545 
L 343.292279 -393.054545 
L 342.388917 -393.054545 
L 341.485554 -393.054545 
L 339.678829 -393.054545 
L 337.872105 -393.054545 
L 336.968742 -393.054545 
L 336.06538 -393.054545 
L 335.162017 -393.054545 
L 334.258655 -393.054545 
L 333.355293 -393.054545 
L 332.45193 -393.054545 
L 331.548568 -393.054545 
L 330.645205 -393.054545 
L 329.741843 -393.054545 
L 328.838481 -393.054545 
L 327.935118 -393.054545 
L 327.031756 -393.054545 
L 326.128394 -393.054545 
L 325.225031 -393.054545 
L 324.321669 -393.054545 
L 323.418306 -393.054545 
L 322.514944 -393.054545 
L 321.611582 -393.054545 
L 320.708219 -393.054545 
L 319.804857 -393.054545 
L 318.901494 -393.054545 
L 317.998132 -393.054545 
L 317.09477 -393.054545 
L 316.191407 -393.054545 
L 315.288045 -393.054545 
L 314.384682 -393.054545 
L 313.48132 -393.054545 
L 312.577958 -393.054545 
L 311.674595 -393.054545 
L 310.771233 -393.054545 
L 309.86787 -393.054545 
L 308.964508 -393.054545 
L 308.061146 -393.054545 
L 307.157783 -393.054545 
L 306.254421 -393.054545 
L 305.351059 -393.054545 
L 304.447696 -393.054545 
L 303.544334 -393.054545 
L 302.640971 -393.054545 
L 301.737609 -393.054545 
L 299.930884 -393.054545 
L 299.027522 -393.054545 
L 298.124159 -393.054545 
L 297.220797 -393.054545 
L 296.317435 -393.054545 
L 295.414072 -393.054545 
L 294.51071 -393.054545 
L 293.607347 -393.054545 
L 292.703985 -393.054545 
L 291.800623 -393.054545 
L 290.89726 -393.054545 
L 289.993898 -393.054545 
L 289.090535 -393.054545 
L 288.187173 -393.054545 
L 287.283811 -393.054545 
L 286.380448 -393.054545 
L 285.477086 -393.054545 
L 284.573724 -393.054545 
L 283.670361 -393.054545 
L 282.766999 -393.054545 
L 281.863636 -393.054545 
L 280.960274 -393.054545 
L 280.056912 -393.054545 
L 279.153549 -393.054545 
L 278.250187 -393.054545 
L 277.346824 -393.054545 
L 276.443462 -393.054545 
L 275.5401 -393.054545 
L 274.636737 -393.054545 
L 273.733375 -393.054545 
L 272.830012 -393.054545 
L 271.92665 -393.054545 
L 271.023288 -393.054545 
L 270.119925 -393.054545 
L 269.216563 -393.054545 
L 268.3132 -393.054545 
L 267.409838 -393.054545 
L 266.506476 -393.054545 
L 265.603113 -393.054545 
L 263.796389 -393.054545 
L 262.893026 -393.054545 
L 261.989664 -393.054545 
L 261.086301 -393.054545 
L 260.182939 -393.054545 
L 259.279577 -393.054545 
L 257.472852 -393.054545 
L 256.569489 -393.054545 
L 255.666127 -393.054545 
L 254.762765 -393.054545 
L 253.859402 -393.054545 
L 252.95604 -393.054545 
L 252.052677 -393.054545 
L 249.34259 -393.054545 
L 247.535866 -393.054545 
L 246.632503 -393.054545 
L 245.729141 -393.054545 
L 244.825778 -393.054545 
L 242.115691 -393.054545 
L 241.212329 -393.054545 
L 240.308966 -393.054545 
L 239.405604 -393.054545 
L 238.502242 -393.054545 
L 237.598879 -393.054545 
L 236.695517 -393.054545 
L 235.792154 -393.054545 
L 234.888792 -393.054545 
L 233.98543 -393.054545 
L 233.082067 -393.054545 
L 232.178705 -393.054545 
L 231.275342 -393.054545 
L 230.37198 -393.054545 
L 229.468618 -393.054545 
L 228.565255 -393.054545 
L 227.661893 -393.054545 
L 226.758531 -393.054545 
L 225.855168 -393.054545 
L 224.951806 -393.054545 
L 224.048443 -393.054545 
L 223.145081 -393.054545 
L 222.241719 -393.054545 
L 221.338356 -393.054545 
L 220.434994 -393.054545 
L 219.531631 -393.054545 
L 218.628269 -393.054545 
L 217.724907 -393.054545 
L 216.821544 -393.054545 
L 215.918182 -393.054545 
L 215.014819 -393.054545 
L 214.111457 -393.054545 
L 213.208095 -393.054545 
L 212.304732 -393.054545 
L 211.40137 -393.054545 
L 210.498007 -393.054545 
L 209.594645 -393.054545 
L 208.691283 -393.054545 
L 207.78792 -393.054545 
L 206.884558 -393.054545 
L 205.981196 -393.054545 
L 205.077833 -393.054545 
L 204.174471 -393.054545 
L 203.271108 -393.054545 
L 202.367746 -393.054545 
L 201.464384 -393.054545 
L 200.561021 -393.054545 
L 199.657659 -393.054545 
L 198.754296 -393.054545 
L 197.850934 -393.054545 
L 196.947572 -393.054545 
L 196.044209 -393.054545 
L 195.140847 -393.054545 
L 194.237484 -393.054545 
L 193.334122 -393.054545 
L 192.43076 -393.054545 
L 191.527397 -393.054545 
L 190.624035 -393.054545 
L 189.720672 -393.054545 
L 188.81731 -393.054545 
L 187.913948 -393.054545 
L 187.010585 -393.054545 
L 186.107223 -393.054545 
L 185.203861 -393.054545 
L 184.300498 -393.054545 
L 183.397136 -393.054545 
L 182.493773 -393.054545 
L 181.590411 -393.054545 
L 180.687049 -393.054545 
L 179.783686 -393.054545 
L 178.880324 -393.054545 
L 177.976961 -393.054545 
L 177.073599 -393.054545 
L 176.170237 -393.054545 
L 175.266874 -393.054545 
L 174.363512 -393.054545 
L 173.460149 -393.054545 
L 172.556787 -393.054545 
L 171.653425 -393.054545 
L 170.750062 -393.054545 
L 169.8467 -393.054545 
L 168.943337 -393.054545 
L 168.039975 -393.054545 
L 167.136613 -393.054545 
L 166.23325 -393.054545 
L 165.329888 -393.054545 
L 164.426526 -393.054545 
L 163.523163 -393.054545 
L 162.619801 -393.054545 
L 161.716438 -393.054545 
L 160.813076 -393.054545 
L 159.909714 -393.054545 
L 159.006351 -393.054545 
L 158.102989 -393.054545 
L 157.199626 -393.054545 
L 156.296264 -393.054545 
L 155.392902 -393.054545 
L 154.489539 -393.054545 
L 153.586177 -393.054545 
L 152.682814 -393.054545 
L 151.779452 -393.054545 
L 150.87609 -393.054545 
L 149.972727 -393.054545 
z
" style="stroke: #008000"/>
    </defs>
    <g clip-path="url(#pc2e620182d)">
     <use xlink:href="#md4d7dd361f" x="0" y="720" style="fill: #008000; stroke: #008000"/>
    </g>
   </g>
   <g id="matplotlib.axis_1">
    <g id="xtick_1">
     <g id="line2d_1">
      <defs>
       <path id="m211e89e15d" d="M 0 0 
L 0 3.5 
" style="stroke: #000000; stroke-width: 0.8"/>
      </defs>
      <g>
       <use xlink:href="#m211e89e15d" x="149.972727" y="338.4" style="stroke: #000000; stroke-width: 0.8"/>
      </g>
     </g>
     <g id="text_1">
      <!-- 0 -->
      <g transform="translate(146.791477 352.998437)scale(0.1 -0.1)">
       <defs>
        <path id="DejaVuSans-30" d="M 2034 4250 
Q 1547 4250 1301 3770 
Q 1056 3291 1056 2328 
Q 1056 1369 1301 889 
Q 1547 409 2034 409 
Q 2525 409 2770 889 
Q 3016 1369 3016 2328 
Q 3016 3291 2770 3770 
Q 2525 4250 2034 4250 
z
M 2034 4750 
Q 2819 4750 3233 4129 
Q 3647 3509 3647 2328 
Q 3647 1150 3233 529 
Q 2819 -91 2034 -91 
Q 1250 -91 836 529 
Q 422 1150 422 2328 
Q 422 3509 836 4129 
Q 1250 4750 2034 4750 
z
" transform="scale(0.015625)"/>
       </defs>
       <use xlink:href="#DejaVuSans-30"/>
      </g>
     </g>
    </g>
    <g id="xtick_2">
     <g id="line2d_2">
      <g>
       <use xlink:href="#m211e89e15d" x="240.308966" y="338.4" style="stroke: #000000; stroke-width: 0.8"/>
      </g>
     </g>
     <g id="text_2">
      <!-- 1 -->
      <g transform="translate(237.127716 352.998437)scale(0.1 -0.1)">
       <defs>
        <path id="DejaVuSans-31" d="M 794 531 
L 1825 531 
L 1825 4091 
L 703 3866 
L 703 4441 
L 1819 4666 
L 2450 4666 
L 2450 531 
L 3481 531 
L 3481 0 
L 794 0 
L 794 531 
z
" transform="scale(0.015625)"/>
       </defs>
       <use xlink:href="#DejaVuSans-31"/>
      </g>
     </g>
    </g>
    <g id="xtick_3">
     <g id="line2d_3">
      <g>
       <use xlink:href="#m211e89e15d" x="330.645205" y="338.4" style="stroke: #000000; stroke-width: 0.8"/>
      </g>
     </g>
     <g id="text_3">
      <!-- 2 -->
      <g transform="translate(327.463955 352.998437)scale(0.1 -0.1)">
       <defs>
        <path id="DejaVuSans-32" d="M 1228 531 
L 3431 531 
L 3431 0 
L 469 0 
L 469 531 
Q 828 903 1448 1529 
Q 2069 2156 2228 2338 
Q 2531 2678 2651 2914 
Q 2772 3150 2772 3378 
Q 2772 3750 2511 3984 
Q 2250 4219 1831 4219 
Q 1534 4219 1204 4116 
Q 875 4013 500 3803 
L 500 4441 
Q 881 4594 1212 4672 
Q 1544 4750 1819 4750 
Q 2544 4750 2975 4387 
Q 3406 4025 3406 3419 
Q 3406 3131 3298 2873 
Q 3191 2616 2906 2266 
Q 2828 2175 2409 1742 
Q 1991 1309 1228 531 
z
" transform="scale(0.015625)"/>
       </defs>
       <use xlink:href="#DejaVuSans-32"/>
      </g>
     </g>
    </g>
    <g id="xtick_4">
     <g id="line2d_4">
      <g>
       <use xlink:href="#m211e89e15d" x="420.981445" y="338.4" style="stroke: #000000; stroke-width: 0.8"/>
      </g>
     </g>
     <g id="text_4">
      <!-- 3 -->
      <g transform="translate(417.800195 352.998437)scale(0.1 -0.1)">
       <defs>
        <path id="DejaVuSans-33" d="M 2597 2516 
Q 3050 2419 3304 2112 
Q 3559 1806 3559 1356 
Q 3559 666 3084 287 
Q 2609 -91 1734 -91 
Q 1441 -91 1130 -33 
Q 819 25 488 141 
L 488 750 
Q 750 597 1062 519 
Q 1375 441 1716 441 
Q 2309 441 2620 675 
Q 2931 909 2931 1356 
Q 2931 1769 2642 2001 
Q 2353 2234 1838 2234 
L 1294 2234 
L 1294 2753 
L 1863 2753 
Q 2328 2753 2575 2939 
Q 2822 3125 2822 3475 
Q 2822 3834 2567 4026 
Q 2313 4219 1838 4219 
Q 1578 4219 1281 4162 
Q 984 4106 628 3988 
L 628 4550 
Q 988 4650 1302 4700 
Q 1616 4750 1894 4750 
Q 2613 4750 3031 4423 
Q 3450 4097 3450 3541 
Q 3450 3153 3228 2886 
Q 3006 2619 2597 2516 
z
" transform="scale(0.015625)"/>
       </defs>
       <use xlink:href="#DejaVuSans-33"/>
      </g>
     </g>
    </g>
    <g id="xtick_5">
     <g id="line2d_5">
      <g>
       <use xlink:href="#m211e89e15d" x="511.317684" y="338.4" style="stroke: #000000; stroke-width: 0.8"/>
      </g>
     </g>
     <g id="text_5">
      <!-- 4 -->
      <g transform="translate(508.136434 352.998437)scale(0.1 -0.1)">
       <defs>
        <path id="DejaVuSans-34" d="M 2419 4116 
L 825 1625 
L 2419 1625 
L 2419 4116 
z
M 2253 4666 
L 3047 4666 
L 3047 1625 
L 3713 1625 
L 3713 1100 
L 3047 1100 
L 3047 0 
L 2419 0 
L 2419 1100 
L 313 1100 
L 313 1709 
L 2253 4666 
z
" transform="scale(0.015625)"/>
       </defs>
       <use xlink:href="#DejaVuSans-34"/>
      </g>
     </g>
    </g>
    <g id="xtick_6">
     <g id="line2d_6">
      <g>
       <use xlink:href="#m211e89e15d" x="601.653923" y="338.4" style="stroke: #000000; stroke-width: 0.8"/>
      </g>
     </g>
     <g id="text_6">
      <!-- 5 -->
      <g transform="translate(598.472673 352.998437)scale(0.1 -0.1)">
       <defs>
        <path id="DejaVuSans-35" d="M 691 4666 
L 3169 4666 
L 3169 4134 
L 1269 4134 
L 1269 2991 
Q 1406 3038 1543 3061 
Q 1681 3084 1819 3084 
Q 2600 3084 3056 2656 
Q 3513 2228 3513 1497 
Q 3513 744 3044 326 
Q 2575 -91 1722 -91 
Q 1428 -91 1123 -41 
Q 819 9 494 109 
L 494 744 
Q 775 591 1075 516 
Q 1375 441 1709 441 
Q 2250 441 2565 725 
Q 2881 1009 2881 1497 
Q 2881 1984 2565 2268 
Q 2250 2553 1709 2553 
Q 1456 2553 1204 2497 
Q 953 2441 691 2322 
L 691 4666 
z
" transform="scale(0.015625)"/>
       </defs>
       <use xlink:href="#DejaVuSans-35"/>
      </g>
     </g>
    </g>
    <g id="xtick_7">
     <g id="line2d_7">
      <g>
       <use xlink:href="#m211e89e15d" x="691.990162" y="338.4" style="stroke: #000000; stroke-width: 0.8"/>
      </g>
     </g>
     <g id="text_7">
      <!-- 6 -->
      <g transform="translate(688.808912 352.998437)scale(0.1 -0.1)">
       <defs>
        <path id="DejaVuSans-36" d="M 2113 2584 
Q 1688 2584 1439 2293 
Q 1191 2003 1191 1497 
Q 1191 994 1439 701 
Q 1688 409 2113 409 
Q 2538 409 2786 701 
Q 3034 994 3034 1497 
Q 3034 2003 2786 2293 
Q 2538 2584 2113 2584 
z
M 3366 4563 
L 3366 3988 
Q 3128 4100 2886 4159 
Q 2644 4219 2406 4219 
Q 1781 4219 1451 3797 
Q 1122 3375 1075 2522 
Q 1259 2794 1537 2939 
Q 1816 3084 2150 3084 
Q 2853 3084 3261 2657 
Q 3669 2231 3669 1497 
Q 3669 778 3244 343 
Q 2819 -91 2113 -91 
Q 1303 -91 875 529 
Q 447 1150 447 2328 
Q 447 3434 972 4092 
Q 1497 4750 2381 4750 
Q 2619 4750 2861 4703 
Q 3103 4656 3366 4563 
z
" transform="scale(0.015625)"/>
       </defs>
       <use xlink:href="#DejaVuSans-36"/>
      </g>
     </g>
    </g>
    <g id="xtick_8">
     <g id="line2d_8">
      <g>
       <use xlink:href="#m211e89e15d" x="782.326401" y="338.4" style="stroke: #000000; stroke-width: 0.8"/>
      </g>
     </g>
     <g id="text_8">
      <!-- 7 -->
      <g transform="translate(779.145151 352.998437)scale(0.1 -0.1)">
       <defs>
        <path id="DejaVuSans-37" d="M 525 4666 
L 3525 4666 
L 3525 4397 
L 1831 0 
L 1172 0 
L 2766 4134 
L 525 4134 
L 525 4666 
z
" transform="scale(0.015625)"/>
       </defs>
       <use xlink:href="#DejaVuSans-37"/>
      </g>
     </g>
    </g>
    <g id="text_9">
     <!-- ratio -->
     <g transform="translate(468.171875 366.676562)scale(0.1 -0.1)">
      <defs>
       <path id="DejaVuSans-72" d="M 2631 2963 
Q 2534 3019 2420 3045 
Q 2306 3072 2169 3072 
Q 1681 3072 1420 2755 
Q 1159 2438 1159 1844 
L 1159 0 
L 581 0 
L 581 3500 
L 1159 3500 
L 1159 2956 
Q 1341 3275 1631 3429 
Q 1922 3584 2338 3584 
Q 2397 3584 2469 3576 
Q 2541 3569 2628 3553 
L 2631 2963 
z
" transform="scale(0.015625)"/>
       <path id="DejaVuSans-61" d="M 2194 1759 
Q 1497 1759 1228 1600 
Q 959 1441 959 1056 
Q 959 750 1161 570 
Q 1363 391 1709 391 
Q 2188 391 2477 730 
Q 2766 1069 2766 1631 
L 2766 1759 
L 2194 1759 
z
M 3341 1997 
L 3341 0 
L 2766 0 
L 2766 531 
Q 2569 213 2275 61 
Q 1981 -91 1556 -91 
Q 1019 -91 701 211 
Q 384 513 384 1019 
Q 384 1609 779 1909 
Q 1175 2209 1959 2209 
L 2766 2209 
L 2766 2266 
Q 2766 2663 2505 2880 
Q 2244 3097 1772 3097 
Q 1472 3097 1187 3025 
Q 903 2953 641 2809 
L 641 3341 
Q 956 3463 1253 3523 
Q 1550 3584 1831 3584 
Q 2591 3584 2966 3190 
Q 3341 2797 3341 1997 
z
" transform="scale(0.015625)"/>
       <path id="DejaVuSans-74" d="M 1172 4494 
L 1172 3500 
L 2356 3500 
L 2356 3053 
L 1172 3053 
L 1172 1153 
Q 1172 725 1289 603 
Q 1406 481 1766 481 
L 2356 481 
L 2356 0 
L 1766 0 
Q 1100 0 847 248 
Q 594 497 594 1153 
L 594 3053 
L 172 3053 
L 172 3500 
L 594 3500 
L 594 4494 
L 1172 4494 
z
" transform="scale(0.015625)"/>
       <path id="DejaVuSans-69" d="M 603 3500 
L 1178 3500 
L 1178 0 
L 603 0 
L 603 3500 
z
M 603 4863 
L 1178 4863 
L 1178 4134 
L 603 4134 
L 603 4863 
z
" transform="scale(0.015625)"/>
       <path id="DejaVuSans-6f" d="M 1959 3097 
Q 1497 3097 1228 2736 
Q 959 2375 959 1747 
Q 959 1119 1226 758 
Q 1494 397 1959 397 
Q 2419 397 2687 759 
Q 2956 1122 2956 1747 
Q 2956 2369 2687 2733 
Q 2419 3097 1959 3097 
z
M 1959 3584 
Q 2709 3584 3137 3096 
Q 3566 2609 3566 1747 
Q 3566 888 3137 398 
Q 2709 -91 1959 -91 
Q 1206 -91 779 398 
Q 353 888 353 1747 
Q 353 2609 779 3096 
Q 1206 3584 1959 3584 
z
" transform="scale(0.015625)"/>
      </defs>
      <use xlink:href="#DejaVuSans-72"/>
      <use xlink:href="#DejaVuSans-61" x="41.113281"/>
      <use xlink:href="#DejaVuSans-74" x="102.392578"/>
      <use xlink:href="#DejaVuSans-69" x="141.601562"/>
      <use xlink:href="#DejaVuSans-6f" x="169.384766"/>
     </g>
    </g>
   </g>
   <g id="matplotlib.axis_2">
    <g id="ytick_1">
     <g id="line2d_9">
      <defs>
       <path id="m1d0259098f" d="M 0 0 
L -3.5 0 
" style="stroke: #000000; stroke-width: 0.8"/>
      </defs>
      <g>
       <use xlink:href="#m1d0259098f" x="117" y="326.945455" style="stroke: #000000; stroke-width: 0.8"/>
      </g>
     </g>
     <g id="text_10">
      <!-- 0 -->
      <g transform="translate(103.6375 330.744673)scale(0.1 -0.1)">
       <use xlink:href="#DejaVuSans-30"/>
      </g>
     </g>
    </g>
    <g id="ytick_2">
     <g id="line2d_10">
      <g>
       <use xlink:href="#m1d0259098f" x="117" y="292.234711" style="stroke: #000000; stroke-width: 0.8"/>
      </g>
     </g>
     <g id="text_11">
      <!-- 100 -->
      <g transform="translate(90.9125 296.033929)scale(0.1 -0.1)">
       <use xlink:href="#DejaVuSans-31"/>
       <use xlink:href="#DejaVuSans-30" x="63.623047"/>
       <use xlink:href="#DejaVuSans-30" x="127.246094"/>
      </g>
     </g>
    </g>
    <g id="ytick_3">
     <g id="line2d_11">
      <g>
       <use xlink:href="#m1d0259098f" x="117" y="257.523967" style="stroke: #000000; stroke-width: 0.8"/>
      </g>
     </g>
     <g id="text_12">
      <!-- 200 -->
      <g transform="translate(90.9125 261.323186)scale(0.1 -0.1)">
       <use xlink:href="#DejaVuSans-32"/>
       <use xlink:href="#DejaVuSans-30" x="63.623047"/>
       <use xlink:href="#DejaVuSans-30" x="127.246094"/>
      </g>
     </g>
    </g>
    <g id="ytick_4">
     <g id="line2d_12">
      <g>
       <use xlink:href="#m1d0259098f" x="117" y="222.813223" style="stroke: #000000; stroke-width: 0.8"/>
      </g>
     </g>
     <g id="text_13">
      <!-- 300 -->
      <g transform="translate(90.9125 226.612442)scale(0.1 -0.1)">
       <use xlink:href="#DejaVuSans-33"/>
       <use xlink:href="#DejaVuSans-30" x="63.623047"/>
       <use xlink:href="#DejaVuSans-30" x="127.246094"/>
      </g>
     </g>
    </g>
    <g id="ytick_5">
     <g id="line2d_13">
      <g>
       <use xlink:href="#m1d0259098f" x="117" y="188.102479" style="stroke: #000000; stroke-width: 0.8"/>
      </g>
     </g>
     <g id="text_14">
      <!-- 400 -->
      <g transform="translate(90.9125 191.901698)scale(0.1 -0.1)">
       <use xlink:href="#DejaVuSans-34"/>
       <use xlink:href="#DejaVuSans-30" x="63.623047"/>
       <use xlink:href="#DejaVuSans-30" x="127.246094"/>
      </g>
     </g>
    </g>
    <g id="ytick_6">
     <g id="line2d_14">
      <g>
       <use xlink:href="#m1d0259098f" x="117" y="153.391736" style="stroke: #000000; stroke-width: 0.8"/>
      </g>
     </g>
     <g id="text_15">
      <!-- 500 -->
      <g transform="translate(90.9125 157.190954)scale(0.1 -0.1)">
       <use xlink:href="#DejaVuSans-35"/>
       <use xlink:href="#DejaVuSans-30" x="63.623047"/>
       <use xlink:href="#DejaVuSans-30" x="127.246094"/>
      </g>
     </g>
    </g>
    <g id="ytick_7">
     <g id="line2d_15">
      <g>
       <use xlink:href="#m1d0259098f" x="117" y="118.680992" style="stroke: #000000; stroke-width: 0.8"/>
      </g>
     </g>
     <g id="text_16">
      <!-- 600 -->
      <g transform="translate(90.9125 122.48021)scale(0.1 -0.1)">
       <use xlink:href="#DejaVuSans-36"/>
       <use xlink:href="#DejaVuSans-30" x="63.623047"/>
       <use xlink:href="#DejaVuSans-30" x="127.246094"/>
      </g>
     </g>
    </g>
    <g id="text_17">
     <!-- number of images -->
     <g transform="translate(84.832812 258.090625)rotate(-90)scale(0.1 -0.1)">
      <defs>
       <path id="DejaVuSans-6e" d="M 3513 2113 
L 3513 0 
L 2938 0 
L 2938 2094 
Q 2938 2591 2744 2837 
Q 2550 3084 2163 3084 
Q 1697 3084 1428 2787 
Q 1159 2491 1159 1978 
L 1159 0 
L 581 0 
L 581 3500 
L 1159 3500 
L 1159 2956 
Q 1366 3272 1645 3428 
Q 1925 3584 2291 3584 
Q 2894 3584 3203 3211 
Q 3513 2838 3513 2113 
z
" transform="scale(0.015625)"/>
       <path id="DejaVuSans-75" d="M 544 1381 
L 544 3500 
L 1119 3500 
L 1119 1403 
Q 1119 906 1312 657 
Q 1506 409 1894 409 
Q 2359 409 2629 706 
Q 2900 1003 2900 1516 
L 2900 3500 
L 3475 3500 
L 3475 0 
L 2900 0 
L 2900 538 
Q 2691 219 2414 64 
Q 2138 -91 1772 -91 
Q 1169 -91 856 284 
Q 544 659 544 1381 
z
M 1991 3584 
L 1991 3584 
z
" transform="scale(0.015625)"/>
       <path id="DejaVuSans-6d" d="M 3328 2828 
Q 3544 3216 3844 3400 
Q 4144 3584 4550 3584 
Q 5097 3584 5394 3201 
Q 5691 2819 5691 2113 
L 5691 0 
L 5113 0 
L 5113 2094 
Q 5113 2597 4934 2840 
Q 4756 3084 4391 3084 
Q 3944 3084 3684 2787 
Q 3425 2491 3425 1978 
L 3425 0 
L 2847 0 
L 2847 2094 
Q 2847 2600 2669 2842 
Q 2491 3084 2119 3084 
Q 1678 3084 1418 2786 
Q 1159 2488 1159 1978 
L 1159 0 
L 581 0 
L 581 3500 
L 1159 3500 
L 1159 2956 
Q 1356 3278 1631 3431 
Q 1906 3584 2284 3584 
Q 2666 3584 2933 3390 
Q 3200 3197 3328 2828 
z
" transform="scale(0.015625)"/>
       <path id="DejaVuSans-62" d="M 3116 1747 
Q 3116 2381 2855 2742 
Q 2594 3103 2138 3103 
Q 1681 3103 1420 2742 
Q 1159 2381 1159 1747 
Q 1159 1113 1420 752 
Q 1681 391 2138 391 
Q 2594 391 2855 752 
Q 3116 1113 3116 1747 
z
M 1159 2969 
Q 1341 3281 1617 3432 
Q 1894 3584 2278 3584 
Q 2916 3584 3314 3078 
Q 3713 2572 3713 1747 
Q 3713 922 3314 415 
Q 2916 -91 2278 -91 
Q 1894 -91 1617 61 
Q 1341 213 1159 525 
L 1159 0 
L 581 0 
L 581 4863 
L 1159 4863 
L 1159 2969 
z
" transform="scale(0.015625)"/>
       <path id="DejaVuSans-65" d="M 3597 1894 
L 3597 1613 
L 953 1613 
Q 991 1019 1311 708 
Q 1631 397 2203 397 
Q 2534 397 2845 478 
Q 3156 559 3463 722 
L 3463 178 
Q 3153 47 2828 -22 
Q 2503 -91 2169 -91 
Q 1331 -91 842 396 
Q 353 884 353 1716 
Q 353 2575 817 3079 
Q 1281 3584 2069 3584 
Q 2775 3584 3186 3129 
Q 3597 2675 3597 1894 
z
M 3022 2063 
Q 3016 2534 2758 2815 
Q 2500 3097 2075 3097 
Q 1594 3097 1305 2825 
Q 1016 2553 972 2059 
L 3022 2063 
z
" transform="scale(0.015625)"/>
       <path id="DejaVuSans-20" transform="scale(0.015625)"/>
       <path id="DejaVuSans-66" d="M 2375 4863 
L 2375 4384 
L 1825 4384 
Q 1516 4384 1395 4259 
Q 1275 4134 1275 3809 
L 1275 3500 
L 2222 3500 
L 2222 3053 
L 1275 3053 
L 1275 0 
L 697 0 
L 697 3053 
L 147 3053 
L 147 3500 
L 697 3500 
L 697 3744 
Q 697 4328 969 4595 
Q 1241 4863 1831 4863 
L 2375 4863 
z
" transform="scale(0.015625)"/>
       <path id="DejaVuSans-67" d="M 2906 1791 
Q 2906 2416 2648 2759 
Q 2391 3103 1925 3103 
Q 1463 3103 1205 2759 
Q 947 2416 947 1791 
Q 947 1169 1205 825 
Q 1463 481 1925 481 
Q 2391 481 2648 825 
Q 2906 1169 2906 1791 
z
M 3481 434 
Q 3481 -459 3084 -895 
Q 2688 -1331 1869 -1331 
Q 1566 -1331 1297 -1286 
Q 1028 -1241 775 -1147 
L 775 -588 
Q 1028 -725 1275 -790 
Q 1522 -856 1778 -856 
Q 2344 -856 2625 -561 
Q 2906 -266 2906 331 
L 2906 616 
Q 2728 306 2450 153 
Q 2172 0 1784 0 
Q 1141 0 747 490 
Q 353 981 353 1791 
Q 353 2603 747 3093 
Q 1141 3584 1784 3584 
Q 2172 3584 2450 3431 
Q 2728 3278 2906 2969 
L 2906 3500 
L 3481 3500 
L 3481 434 
z
" transform="scale(0.015625)"/>
       <path id="DejaVuSans-73" d="M 2834 3397 
L 2834 2853 
Q 2591 2978 2328 3040 
Q 2066 3103 1784 3103 
Q 1356 3103 1142 2972 
Q 928 2841 928 2578 
Q 928 2378 1081 2264 
Q 1234 2150 1697 2047 
L 1894 2003 
Q 2506 1872 2764 1633 
Q 3022 1394 3022 966 
Q 3022 478 2636 193 
Q 2250 -91 1575 -91 
Q 1294 -91 989 -36 
Q 684 19 347 128 
L 347 722 
Q 666 556 975 473 
Q 1284 391 1588 391 
Q 1994 391 2212 530 
Q 2431 669 2431 922 
Q 2431 1156 2273 1281 
Q 2116 1406 1581 1522 
L 1381 1569 
Q 847 1681 609 1914 
Q 372 2147 372 2553 
Q 372 3047 722 3315 
Q 1072 3584 1716 3584 
Q 2034 3584 2315 3537 
Q 2597 3491 2834 3397 
z
" transform="scale(0.015625)"/>
      </defs>
      <use xlink:href="#DejaVuSans-6e"/>
      <use xlink:href="#DejaVuSans-75" x="63.378906"/>
      <use xlink:href="#DejaVuSans-6d" x="126.757812"/>
      <use xlink:href="#DejaVuSans-62" x="224.169922"/>
      <use xlink:href="#DejaVuSans-65" x="287.646484"/>
      <use xlink:href="#DejaVuSans-72" x="349.169922"/>
      <use xlink:href="#DejaVuSans-20" x="390.283203"/>
      <use xlink:href="#DejaVuSans-6f" x="422.070312"/>
      <use xlink:href="#DejaVuSans-66" x="483.251953"/>
      <use xlink:href="#DejaVuSans-20" x="518.457031"/>
      <use xlink:href="#DejaVuSans-69" x="550.244141"/>
      <use xlink:href="#DejaVuSans-6d" x="578.027344"/>
      <use xlink:href="#DejaVuSans-61" x="675.439453"/>
      <use xlink:href="#DejaVuSans-67" x="736.71875"/>
      <use xlink:href="#DejaVuSans-65" x="800.195312"/>
      <use xlink:href="#DejaVuSans-73" x="861.71875"/>
     </g>
    </g>
   </g>
   <g id="line2d_16">
    <path d="M 149.972727 179.771901 
L 150.87609 134.300826 
L 151.779452 140.895868 
L 152.682814 125.62314 
L 153.586177 131.523967 
L 154.489539 132.218182 
L 155.392902 110.697521 
L 156.296264 113.821488 
L 157.199626 119.375207 
L 158.102989 105.143802 
L 159.006351 97.854545 
L 159.909714 103.061157 
L 160.813076 120.069421 
L 161.716438 102.019835 
L 162.619801 105.490909 
L 163.523163 129.094215 
L 164.426526 106.532231 
L 165.329888 115.209917 
L 166.23325 119.722314 
L 167.136613 103.408264 
L 168.039975 146.102479 
L 168.943337 135.342149 
L 169.8467 179.424793 
L 170.750062 188.796694 
L 171.653425 219.689256 
L 172.556787 268.284298 
L 173.460149 273.838017 
L 174.363512 268.978512 
L 175.266874 275.226446 
L 176.170237 273.143802 
L 177.073599 279.391736 
L 177.976961 288.763636 
L 178.880324 277.656198 
L 179.783686 284.25124 
L 180.687049 294.317355 
L 181.590411 295.358678 
L 182.493773 298.829752 
L 183.397136 299.523967 
L 184.300498 292.928926 
L 185.203861 297.441322 
L 186.107223 308.895868 
L 187.913948 313.755372 
L 188.81731 315.143802 
L 189.720672 311.672727 
L 190.624035 316.532231 
L 191.527397 316.879339 
L 192.43076 320.350413 
L 193.334122 322.433058 
L 194.237484 323.821488 
L 195.140847 318.267769 
L 196.044209 323.127273 
L 196.947572 322.08595 
L 197.850934 322.780165 
L 198.754296 324.168595 
L 199.657659 321.391736 
L 200.561021 323.821488 
L 201.464384 324.168595 
L 202.367746 321.044628 
L 203.271108 322.780165 
L 204.174471 324.86281 
L 205.077833 323.127273 
L 205.981196 323.127273 
L 206.884558 322.433058 
L 207.78792 323.127273 
L 208.691283 322.433058 
L 209.594645 323.47438 
L 210.498007 322.433058 
L 211.40137 322.433058 
L 212.304732 325.209917 
L 213.208095 323.47438 
L 214.111457 322.780165 
L 215.014819 324.168595 
L 215.918182 323.821488 
L 216.821544 320.350413 
L 217.724907 324.168595 
L 218.628269 322.780165 
L 219.531631 321.738843 
L 220.434994 323.47438 
L 221.338356 320.350413 
L 222.241719 324.168595 
L 223.145081 321.391736 
L 224.048443 322.780165 
L 224.951806 320.003306 
L 225.855168 322.780165 
L 226.758531 318.267769 
L 227.661893 322.780165 
L 228.565255 317.226446 
L 229.468618 320.697521 
L 230.37198 321.044628 
L 231.275342 320.003306 
L 232.178705 319.656198 
L 233.082067 322.433058 
L 233.98543 321.044628 
L 234.888792 322.08595 
L 235.792154 322.433058 
L 236.695517 323.821488 
L 237.598879 315.838017 
L 238.502242 315.490909 
L 239.405604 309.242975 
L 240.308966 293.970248 
L 241.212329 322.433058 
L 242.115691 326.25124 
L 244.825778 326.598347 
L 245.729141 325.904132 
L 246.632503 326.945455 
L 247.535866 325.904132 
L 249.34259 326.25124 
L 252.052677 325.904132 
L 252.95604 326.598347 
L 253.859402 326.25124 
L 254.762765 325.557025 
L 255.666127 325.904132 
L 256.569489 325.904132 
L 257.472852 326.945455 
L 259.279577 326.25124 
L 260.182939 326.25124 
L 261.086301 326.945455 
L 261.989664 326.598347 
L 262.893026 325.557025 
L 263.796389 326.598347 
L 265.603113 325.904132 
L 266.506476 325.904132 
L 267.409838 326.25124 
L 268.3132 325.209917 
L 269.216563 326.598347 
L 270.119925 326.25124 
L 271.023288 326.25124 
L 272.830012 325.557025 
L 273.733375 326.25124 
L 275.5401 326.25124 
L 276.443462 325.209917 
L 277.346824 325.557025 
L 278.250187 325.209917 
L 279.153549 325.209917 
L 280.056912 324.515702 
L 280.960274 324.86281 
L 281.863636 326.598347 
L 282.766999 323.47438 
L 283.670361 323.821488 
L 284.573724 324.515702 
L 285.477086 324.515702 
L 286.380448 321.738843 
L 287.283811 324.86281 
L 288.187173 323.821488 
L 289.090535 325.557025 
L 289.993898 324.86281 
L 290.89726 323.47438 
L 291.800623 324.515702 
L 292.703985 323.47438 
L 293.607347 325.557025 
L 294.51071 325.209917 
L 296.317435 323.821488 
L 297.220797 326.945455 
L 298.124159 325.557025 
L 299.027522 326.25124 
L 299.930884 325.904132 
L 301.737609 325.557025 
L 302.640971 326.25124 
L 303.544334 324.515702 
L 304.447696 325.557025 
L 305.351059 324.86281 
L 306.254421 325.557025 
L 307.157783 325.904132 
L 308.061146 326.598347 
L 308.964508 325.557025 
L 309.86787 326.25124 
L 310.771233 325.904132 
L 311.674595 326.598347 
L 312.577958 324.168595 
L 313.48132 326.25124 
L 314.384682 326.598347 
L 315.288045 326.25124 
L 316.191407 326.25124 
L 317.09477 325.904132 
L 317.998132 326.25124 
L 318.901494 325.904132 
L 319.804857 325.904132 
L 320.708219 326.945455 
L 321.611582 325.557025 
L 322.514944 326.25124 
L 323.418306 325.904132 
L 324.321669 325.904132 
L 325.225031 326.598347 
L 326.128394 326.598347 
L 327.031756 326.25124 
L 327.935118 325.209917 
L 328.838481 326.25124 
L 329.741843 326.25124 
L 330.645205 325.557025 
L 331.548568 326.25124 
L 334.258655 326.25124 
L 335.162017 326.945455 
L 336.06538 326.25124 
L 336.968742 326.598347 
L 337.872105 326.25124 
L 339.678829 326.25124 
L 341.485554 325.904132 
L 342.388917 325.904132 
L 343.292279 326.598347 
L 344.195641 326.945455 
L 347.809091 326.945455 
L 348.712453 326.598347 
L 350.519178 326.945455 
L 353.229265 326.945455 
L 354.132628 326.598347 
L 356.842715 326.945455 
L 357.746077 326.945455 
L 358.64944 326.598347 
L 359.552802 326.945455 
L 363.166252 326.945455 
L 364.069614 326.25124 
L 364.972976 326.945455 
L 366.779701 326.945455 
L 367.683064 326.25124 
L 368.586426 326.945455 
L 386.653674 326.945455 
L 387.557036 325.904132 
L 388.460399 326.945455 
L 391.170486 326.945455 
L 393.880573 326.25124 
L 394.783935 326.598347 
L 396.59066 326.598347 
L 397.494022 326.945455 
L 407.431009 326.945455 
L 408.334371 326.25124 
L 411.044458 326.945455 
L 438.14533 326.945455 
L 440.855417 326.598347 
L 445.372229 326.945455 
L 462.536115 326.945455 
L 466.149564 326.598347 
L 467.956289 326.945455 
L 520.351308 326.945455 
L 521.25467 326.598347 
L 549.258904 326.945455 
L 809.427273 326.945455 
L 809.427273 326.945455 
" clip-path="url(#pc2e620182d)" style="fill: none; stroke: #008000; stroke-width: 1.5; stroke-linecap: square"/>
   </g>
   <g id="patch_3">
    <path d="M 117 338.4 
L 117 86.4 
" style="fill: none; stroke: #000000; stroke-width: 0.8; stroke-linejoin: miter; stroke-linecap: square"/>
   </g>
   <g id="patch_4">
    <path d="M 842.4 338.4 
L 842.4 86.4 
" style="fill: none; stroke: #000000; stroke-width: 0.8; stroke-linejoin: miter; stroke-linecap: square"/>
   </g>
   <g id="patch_5">
    <path d="M 117 338.4 
L 842.4 338.4 
" style="fill: none; stroke: #000000; stroke-width: 0.8; stroke-linejoin: miter; stroke-linecap: square"/>
   </g>
   <g id="patch_6">
    <path d="M 117 86.4 
L 842.4 86.4 
" style="fill: none; stroke: #000000; stroke-width: 0.8; stroke-linejoin: miter; stroke-linecap: square"/>
   </g>
   <g id="text_18">
    <!-- Ratio area occupied by people / image total area -->
    <g transform="translate(333.110625 80.4)scale(0.12 -0.12)">
     <defs>
      <path id="DejaVuSans-52" d="M 2841 2188 
Q 3044 2119 3236 1894 
Q 3428 1669 3622 1275 
L 4263 0 
L 3584 0 
L 2988 1197 
Q 2756 1666 2539 1819 
Q 2322 1972 1947 1972 
L 1259 1972 
L 1259 0 
L 628 0 
L 628 4666 
L 2053 4666 
Q 2853 4666 3247 4331 
Q 3641 3997 3641 3322 
Q 3641 2881 3436 2590 
Q 3231 2300 2841 2188 
z
M 1259 4147 
L 1259 2491 
L 2053 2491 
Q 2509 2491 2742 2702 
Q 2975 2913 2975 3322 
Q 2975 3731 2742 3939 
Q 2509 4147 2053 4147 
L 1259 4147 
z
" transform="scale(0.015625)"/>
      <path id="DejaVuSans-63" d="M 3122 3366 
L 3122 2828 
Q 2878 2963 2633 3030 
Q 2388 3097 2138 3097 
Q 1578 3097 1268 2742 
Q 959 2388 959 1747 
Q 959 1106 1268 751 
Q 1578 397 2138 397 
Q 2388 397 2633 464 
Q 2878 531 3122 666 
L 3122 134 
Q 2881 22 2623 -34 
Q 2366 -91 2075 -91 
Q 1284 -91 818 406 
Q 353 903 353 1747 
Q 353 2603 823 3093 
Q 1294 3584 2113 3584 
Q 2378 3584 2631 3529 
Q 2884 3475 3122 3366 
z
" transform="scale(0.015625)"/>
      <path id="DejaVuSans-70" d="M 1159 525 
L 1159 -1331 
L 581 -1331 
L 581 3500 
L 1159 3500 
L 1159 2969 
Q 1341 3281 1617 3432 
Q 1894 3584 2278 3584 
Q 2916 3584 3314 3078 
Q 3713 2572 3713 1747 
Q 3713 922 3314 415 
Q 2916 -91 2278 -91 
Q 1894 -91 1617 61 
Q 1341 213 1159 525 
z
M 3116 1747 
Q 3116 2381 2855 2742 
Q 2594 3103 2138 3103 
Q 1681 3103 1420 2742 
Q 1159 2381 1159 1747 
Q 1159 1113 1420 752 
Q 1681 391 2138 391 
Q 2594 391 2855 752 
Q 3116 1113 3116 1747 
z
" transform="scale(0.015625)"/>
      <path id="DejaVuSans-64" d="M 2906 2969 
L 2906 4863 
L 3481 4863 
L 3481 0 
L 2906 0 
L 2906 525 
Q 2725 213 2448 61 
Q 2172 -91 1784 -91 
Q 1150 -91 751 415 
Q 353 922 353 1747 
Q 353 2572 751 3078 
Q 1150 3584 1784 3584 
Q 2172 3584 2448 3432 
Q 2725 3281 2906 2969 
z
M 947 1747 
Q 947 1113 1208 752 
Q 1469 391 1925 391 
Q 2381 391 2643 752 
Q 2906 1113 2906 1747 
Q 2906 2381 2643 2742 
Q 2381 3103 1925 3103 
Q 1469 3103 1208 2742 
Q 947 2381 947 1747 
z
" transform="scale(0.015625)"/>
      <path id="DejaVuSans-79" d="M 2059 -325 
Q 1816 -950 1584 -1140 
Q 1353 -1331 966 -1331 
L 506 -1331 
L 506 -850 
L 844 -850 
Q 1081 -850 1212 -737 
Q 1344 -625 1503 -206 
L 1606 56 
L 191 3500 
L 800 3500 
L 1894 763 
L 2988 3500 
L 3597 3500 
L 2059 -325 
z
" transform="scale(0.015625)"/>
      <path id="DejaVuSans-6c" d="M 603 4863 
L 1178 4863 
L 1178 0 
L 603 0 
L 603 4863 
z
" transform="scale(0.015625)"/>
      <path id="DejaVuSans-2f" d="M 1625 4666 
L 2156 4666 
L 531 -594 
L 0 -594 
L 1625 4666 
z
" transform="scale(0.015625)"/>
     </defs>
     <use xlink:href="#DejaVuSans-52"/>
     <use xlink:href="#DejaVuSans-61" x="67.232422"/>
     <use xlink:href="#DejaVuSans-74" x="128.511719"/>
     <use xlink:href="#DejaVuSans-69" x="167.720703"/>
     <use xlink:href="#DejaVuSans-6f" x="195.503906"/>
     <use xlink:href="#DejaVuSans-20" x="256.685547"/>
     <use xlink:href="#DejaVuSans-61" x="288.472656"/>
     <use xlink:href="#DejaVuSans-72" x="349.751953"/>
     <use xlink:href="#DejaVuSans-65" x="388.615234"/>
     <use xlink:href="#DejaVuSans-61" x="450.138672"/>
     <use xlink:href="#DejaVuSans-20" x="511.417969"/>
     <use xlink:href="#DejaVuSans-6f" x="543.205078"/>
     <use xlink:href="#DejaVuSans-63" x="604.386719"/>
     <use xlink:href="#DejaVuSans-63" x="659.367188"/>
     <use xlink:href="#DejaVuSans-75" x="714.347656"/>
     <use xlink:href="#DejaVuSans-70" x="777.726562"/>
     <use xlink:href="#DejaVuSans-69" x="841.203125"/>
     <use xlink:href="#DejaVuSans-65" x="868.986328"/>
     <use xlink:href="#DejaVuSans-64" x="930.509766"/>
     <use xlink:href="#DejaVuSans-20" x="993.986328"/>
     <use xlink:href="#DejaVuSans-62" x="1025.773438"/>
     <use xlink:href="#DejaVuSans-79" x="1089.25"/>
     <use xlink:href="#DejaVuSans-20" x="1148.429688"/>
     <use xlink:href="#DejaVuSans-70" x="1180.216797"/>
     <use xlink:href="#DejaVuSans-65" x="1243.693359"/>
     <use xlink:href="#DejaVuSans-6f" x="1305.216797"/>
     <use xlink:href="#DejaVuSans-70" x="1366.398438"/>
     <use xlink:href="#DejaVuSans-6c" x="1429.875"/>
     <use xlink:href="#DejaVuSans-65" x="1457.658203"/>
     <use xlink:href="#DejaVuSans-20" x="1519.181641"/>
     <use xlink:href="#DejaVuSans-2f" x="1550.96875"/>
     <use xlink:href="#DejaVuSans-20" x="1584.660156"/>
     <use xlink:href="#DejaVuSans-69" x="1616.447266"/>
     <use xlink:href="#DejaVuSans-6d" x="1644.230469"/>
     <use xlink:href="#DejaVuSans-61" x="1741.642578"/>
     <use xlink:href="#DejaVuSans-67" x="1802.921875"/>
     <use xlink:href="#DejaVuSans-65" x="1866.398438"/>
     <use xlink:href="#DejaVuSans-20" x="1927.921875"/>
     <use xlink:href="#DejaVuSans-74" x="1959.708984"/>
     <use xlink:href="#DejaVuSans-6f" x="1998.917969"/>
     <use xlink:href="#DejaVuSans-74" x="2060.099609"/>
     <use xlink:href="#DejaVuSans-61" x="2099.308594"/>
     <use xlink:href="#DejaVuSans-6c" x="2160.587891"/>
     <use xlink:href="#DejaVuSans-20" x="2188.371094"/>
     <use xlink:href="#DejaVuSans-61" x="2220.158203"/>
     <use xlink:href="#DejaVuSans-72" x="2281.4375"/>
     <use xlink:href="#DejaVuSans-65" x="2320.300781"/>
     <use xlink:href="#DejaVuSans-61" x="2381.824219"/>
    </g>
   </g>
   <g id="legend_1">
    <g id="patch_7">
     <path d="M 715.770313 109.078125 
L 835.4 109.078125 
Q 837.4 109.078125 837.4 107.078125 
L 837.4 93.4 
Q 837.4 91.4 835.4 91.4 
L 715.770313 91.4 
Q 713.770313 91.4 713.770313 93.4 
L 713.770313 107.078125 
Q 713.770313 109.078125 715.770313 109.078125 
z
" style="fill: #ffffff; opacity: 0.8; stroke: #cccccc; stroke-linejoin: miter"/>
    </g>
    <g id="line2d_17">
     <path d="M 717.770313 99.498438 
L 727.770313 99.498438 
L 737.770313 99.498438 
" style="fill: none; stroke: #008000; stroke-width: 1.5; stroke-linecap: square"/>
    </g>
    <g id="text_19">
     <!-- mscoco + emodb -->
     <g transform="translate(745.770313 102.998438)scale(0.1 -0.1)">
      <defs>
       <path id="DejaVuSans-2b" d="M 2944 4013 
L 2944 2272 
L 4684 2272 
L 4684 1741 
L 2944 1741 
L 2944 0 
L 2419 0 
L 2419 1741 
L 678 1741 
L 678 2272 
L 2419 2272 
L 2419 4013 
L 2944 4013 
z
" transform="scale(0.015625)"/>
      </defs>
      <use xlink:href="#DejaVuSans-6d"/>
      <use xlink:href="#DejaVuSans-73" x="97.412109"/>
      <use xlink:href="#DejaVuSans-63" x="149.511719"/>
      <use xlink:href="#DejaVuSans-6f" x="204.492188"/>
      <use xlink:href="#DejaVuSans-63" x="265.673828"/>
      <use xlink:href="#DejaVuSans-6f" x="320.654297"/>
      <use xlink:href="#DejaVuSans-20" x="381.835938"/>
      <use xlink:href="#DejaVuSans-2b" x="413.623047"/>
      <use xlink:href="#DejaVuSans-20" x="497.412109"/>
      <use xlink:href="#DejaVuSans-65" x="529.199219"/>
      <use xlink:href="#DejaVuSans-6d" x="590.722656"/>
      <use xlink:href="#DejaVuSans-6f" x="688.134766"/>
      <use xlink:href="#DejaVuSans-64" x="749.316406"/>
      <use xlink:href="#DejaVuSans-62" x="812.792969"/>
     </g>
    </g>
   </g>
  </g>
  <g id="axes_2">
   <g id="patch_8">
    <path d="M 117 640.8 
L 842.4 640.8 
L 842.4 388.8 
L 117 388.8 
z
" style="fill: #ffffff"/>
   </g>
   <g id="PolyCollection_2">
    <defs>
     <path id="mb2d2adf5d9" d="M 149.972727 -90.654545 
L 149.972727 -237.828099 
L 150.87609 -283.299174 
L 151.779452 -276.704132 
L 152.682814 -291.97686 
L 153.586177 -286.076033 
L 154.489539 -285.381818 
L 155.392902 -306.902479 
L 156.296264 -303.778512 
L 157.199626 -298.224793 
L 158.102989 -312.456198 
L 159.006351 -319.745455 
L 159.909714 -314.538843 
L 160.813076 -297.530579 
L 161.716438 -315.580165 
L 162.619801 -312.109091 
L 163.523163 -288.505785 
L 164.426526 -311.067769 
L 165.329888 -302.390083 
L 166.23325 -297.877686 
L 167.136613 -314.191736 
L 168.039975 -271.497521 
L 168.943337 -282.257851 
L 169.8467 -238.175207 
L 170.750062 -228.803306 
L 171.653425 -197.910744 
L 172.556787 -149.315702 
L 173.460149 -143.761983 
L 174.363512 -148.621488 
L 175.266874 -142.373554 
L 176.170237 -144.109091 
L 177.073599 -137.861157 
L 177.976961 -128.836364 
L 178.880324 -139.596694 
L 179.783686 -133.001653 
L 180.687049 -123.282645 
L 181.590411 -122.241322 
L 182.493773 -118.42314 
L 183.397136 -117.728926 
L 184.300498 -123.629752 
L 185.203861 -119.464463 
L 186.107223 -108.009917 
L 187.010585 -105.580165 
L 187.913948 -102.456198 
L 188.81731 -102.109091 
L 189.720672 -104.191736 
L 190.624035 -99.679339 
L 191.527397 -99.679339 
L 192.43076 -96.902479 
L 193.334122 -93.084298 
L 194.237484 -93.431405 
L 195.140847 -96.555372 
L 196.044209 -94.12562 
L 196.947572 -93.778512 
L 197.850934 -93.431405 
L 198.754296 -92.390083 
L 199.657659 -94.819835 
L 200.561021 -91.34876 
L 201.464384 -92.042975 
L 202.367746 -94.472727 
L 203.271108 -93.778512 
L 204.174471 -91.34876 
L 205.077833 -92.390083 
L 205.981196 -92.390083 
L 206.884558 -92.390083 
L 207.78792 -91.695868 
L 208.691283 -91.695868 
L 209.594645 -91.695868 
L 210.498007 -91.34876 
L 211.40137 -92.390083 
L 212.304732 -91.001653 
L 214.111457 -90.654545 
L 215.014819 -91.001653 
L 215.918182 -90.654545 
L 216.821544 -90.654545 
L 217.724907 -91.695868 
L 219.531631 -90.654545 
L 220.434994 -90.654545 
L 221.338356 -90.654545 
L 224.048443 -90.654545 
L 227.661893 -90.654545 
L 228.565255 -90.654545 
L 237.598879 -90.654545 
L 245.729141 -90.654545 
L 253.859402 -90.654545 
L 253.859402 -90.654545 
L 253.859402 -90.654545 
L 245.729141 -90.654545 
L 237.598879 -90.654545 
L 228.565255 -90.654545 
L 227.661893 -90.654545 
L 224.048443 -90.654545 
L 221.338356 -90.654545 
L 220.434994 -90.654545 
L 219.531631 -90.654545 
L 217.724907 -90.654545 
L 216.821544 -90.654545 
L 215.918182 -90.654545 
L 215.014819 -90.654545 
L 214.111457 -90.654545 
L 212.304732 -90.654545 
L 211.40137 -90.654545 
L 210.498007 -90.654545 
L 209.594645 -90.654545 
L 208.691283 -90.654545 
L 207.78792 -90.654545 
L 206.884558 -90.654545 
L 205.981196 -90.654545 
L 205.077833 -90.654545 
L 204.174471 -90.654545 
L 203.271108 -90.654545 
L 202.367746 -90.654545 
L 201.464384 -90.654545 
L 200.561021 -90.654545 
L 199.657659 -90.654545 
L 198.754296 -90.654545 
L 197.850934 -90.654545 
L 196.947572 -90.654545 
L 196.044209 -90.654545 
L 195.140847 -90.654545 
L 194.237484 -90.654545 
L 193.334122 -90.654545 
L 192.43076 -90.654545 
L 191.527397 -90.654545 
L 190.624035 -90.654545 
L 189.720672 -90.654545 
L 188.81731 -90.654545 
L 187.913948 -90.654545 
L 187.010585 -90.654545 
L 186.107223 -90.654545 
L 185.203861 -90.654545 
L 184.300498 -90.654545 
L 183.397136 -90.654545 
L 182.493773 -90.654545 
L 181.590411 -90.654545 
L 180.687049 -90.654545 
L 179.783686 -90.654545 
L 178.880324 -90.654545 
L 177.976961 -90.654545 
L 177.073599 -90.654545 
L 176.170237 -90.654545 
L 175.266874 -90.654545 
L 174.363512 -90.654545 
L 173.460149 -90.654545 
L 172.556787 -90.654545 
L 171.653425 -90.654545 
L 170.750062 -90.654545 
L 169.8467 -90.654545 
L 168.943337 -90.654545 
L 168.039975 -90.654545 
L 167.136613 -90.654545 
L 166.23325 -90.654545 
L 165.329888 -90.654545 
L 164.426526 -90.654545 
L 163.523163 -90.654545 
L 162.619801 -90.654545 
L 161.716438 -90.654545 
L 160.813076 -90.654545 
L 159.909714 -90.654545 
L 159.006351 -90.654545 
L 158.102989 -90.654545 
L 157.199626 -90.654545 
L 156.296264 -90.654545 
L 155.392902 -90.654545 
L 154.489539 -90.654545 
L 153.586177 -90.654545 
L 152.682814 -90.654545 
L 151.779452 -90.654545 
L 150.87609 -90.654545 
L 149.972727 -90.654545 
z
" style="stroke: #ffff00"/>
    </defs>
    <g clip-path="url(#pe926d021ed)">
     <use xlink:href="#mb2d2adf5d9" x="0" y="720" style="fill: #ffff00; stroke: #ffff00"/>
    </g>
   </g>
   <g id="PolyCollection_3">
    <defs>
     <path id="m4ac13332da" d="M 176.170237 -90.654545 
L 176.170237 -90.654545 
L 177.073599 -90.654545 
L 178.880324 -90.654545 
L 179.783686 -90.654545 
L 182.493773 -90.654545 
L 183.397136 -90.654545 
L 184.300498 -91.34876 
L 185.203861 -91.001653 
L 186.107223 -91.001653 
L 187.010585 -91.001653 
L 187.913948 -91.695868 
L 188.81731 -90.654545 
L 189.720672 -92.042975 
L 190.624035 -91.695868 
L 191.527397 -91.34876 
L 192.43076 -90.654545 
L 193.334122 -92.390083 
L 194.237484 -90.654545 
L 195.140847 -93.084298 
L 196.044209 -90.654545 
L 196.947572 -92.042975 
L 197.850934 -91.695868 
L 198.754296 -91.34876 
L 199.657659 -91.695868 
L 200.561021 -92.73719 
L 201.464384 -91.695868 
L 202.367746 -92.390083 
L 203.271108 -91.34876 
L 204.174471 -91.695868 
L 205.077833 -92.390083 
L 205.981196 -92.390083 
L 206.884558 -93.084298 
L 207.78792 -93.084298 
L 208.691283 -93.778512 
L 209.594645 -92.73719 
L 210.498007 -94.12562 
L 211.40137 -93.084298 
L 212.304732 -91.695868 
L 213.208095 -94.12562 
L 214.111457 -94.472727 
L 215.014819 -92.73719 
L 215.918182 -93.431405 
L 216.821544 -96.902479 
L 217.724907 -92.042975 
L 218.628269 -94.819835 
L 219.531631 -95.51405 
L 220.434994 -93.778512 
L 221.338356 -96.902479 
L 222.241719 -93.431405 
L 223.145081 -96.208264 
L 224.048443 -94.472727 
L 224.951806 -97.596694 
L 225.855168 -94.819835 
L 226.758531 -99.332231 
L 227.661893 -94.472727 
L 228.565255 -100.026446 
L 229.468618 -96.902479 
L 230.37198 -96.555372 
L 231.275342 -97.596694 
L 232.178705 -97.943802 
L 233.082067 -95.166942 
L 233.98543 -96.555372 
L 234.888792 -95.51405 
L 235.792154 -95.166942 
L 236.695517 -93.778512 
L 237.598879 -101.414876 
L 238.502242 -102.109091 
L 239.405604 -108.357025 
L 240.308966 -123.629752 
L 241.212329 -95.166942 
L 242.115691 -91.34876 
L 244.825778 -91.001653 
L 245.729141 -91.34876 
L 246.632503 -90.654545 
L 247.535866 -91.695868 
L 249.34259 -91.34876 
L 252.052677 -91.695868 
L 252.95604 -91.001653 
L 253.859402 -91.001653 
L 254.762765 -92.042975 
L 255.666127 -91.695868 
L 256.569489 -91.695868 
L 257.472852 -90.654545 
L 259.279577 -91.34876 
L 260.182939 -91.34876 
L 261.086301 -90.654545 
L 261.989664 -91.001653 
L 262.893026 -92.042975 
L 263.796389 -91.001653 
L 265.603113 -91.695868 
L 266.506476 -91.695868 
L 267.409838 -91.34876 
L 268.3132 -92.390083 
L 269.216563 -91.001653 
L 270.119925 -91.34876 
L 271.023288 -91.34876 
L 271.92665 -91.695868 
L 272.830012 -92.042975 
L 273.733375 -91.34876 
L 274.636737 -91.34876 
L 275.5401 -91.34876 
L 276.443462 -92.390083 
L 277.346824 -92.042975 
L 278.250187 -92.390083 
L 279.153549 -92.390083 
L 280.056912 -93.084298 
L 280.960274 -92.73719 
L 281.863636 -91.001653 
L 282.766999 -94.12562 
L 283.670361 -93.778512 
L 284.573724 -93.084298 
L 285.477086 -93.084298 
L 286.380448 -95.861157 
L 287.283811 -92.73719 
L 288.187173 -93.778512 
L 289.090535 -92.042975 
L 289.993898 -92.73719 
L 290.89726 -94.12562 
L 291.800623 -93.084298 
L 292.703985 -94.12562 
L 293.607347 -92.042975 
L 294.51071 -92.390083 
L 295.414072 -93.084298 
L 296.317435 -93.778512 
L 297.220797 -90.654545 
L 298.124159 -92.042975 
L 299.027522 -91.34876 
L 299.930884 -91.695868 
L 301.737609 -92.042975 
L 302.640971 -91.34876 
L 303.544334 -93.084298 
L 304.447696 -92.042975 
L 305.351059 -92.73719 
L 306.254421 -92.042975 
L 307.157783 -91.695868 
L 308.061146 -91.001653 
L 308.964508 -92.042975 
L 309.86787 -91.34876 
L 310.771233 -91.695868 
L 311.674595 -91.001653 
L 312.577958 -93.431405 
L 313.48132 -91.34876 
L 314.384682 -91.001653 
L 315.288045 -91.34876 
L 316.191407 -91.34876 
L 317.09477 -91.695868 
L 317.998132 -91.34876 
L 318.901494 -91.695868 
L 319.804857 -91.695868 
L 320.708219 -90.654545 
L 321.611582 -92.042975 
L 322.514944 -91.34876 
L 323.418306 -91.695868 
L 324.321669 -91.695868 
L 325.225031 -91.001653 
L 326.128394 -91.001653 
L 327.031756 -91.34876 
L 327.935118 -92.390083 
L 328.838481 -91.34876 
L 329.741843 -91.34876 
L 330.645205 -92.042975 
L 331.548568 -91.34876 
L 332.45193 -91.34876 
L 333.355293 -91.34876 
L 334.258655 -91.34876 
L 335.162017 -90.654545 
L 336.06538 -91.34876 
L 336.968742 -91.001653 
L 337.872105 -91.34876 
L 339.678829 -91.34876 
L 341.485554 -91.695868 
L 342.388917 -91.695868 
L 343.292279 -91.001653 
L 344.195641 -90.654545 
L 345.099004 -90.654545 
L 346.905729 -90.654545 
L 347.809091 -90.654545 
L 348.712453 -91.001653 
L 350.519178 -90.654545 
L 352.325903 -90.654545 
L 353.229265 -90.654545 
L 354.132628 -91.001653 
L 356.842715 -90.654545 
L 357.746077 -90.654545 
L 358.64944 -91.001653 
L 359.552802 -90.654545 
L 360.456164 -90.654545 
L 361.359527 -90.654545 
L 363.166252 -90.654545 
L 364.069614 -91.34876 
L 364.972976 -90.654545 
L 366.779701 -90.654545 
L 367.683064 -91.34876 
L 368.586426 -90.654545 
L 369.489788 -90.654545 
L 371.296513 -90.654545 
L 372.199875 -90.654545 
L 374.0066 -90.654545 
L 376.716687 -90.654545 
L 378.523412 -90.654545 
L 379.426775 -90.654545 
L 380.330137 -90.654545 
L 383.040224 -90.654545 
L 386.653674 -90.654545 
L 387.557036 -91.695868 
L 388.460399 -90.654545 
L 391.170486 -90.654545 
L 393.880573 -91.34876 
L 394.783935 -91.001653 
L 395.687298 -91.001653 
L 396.59066 -91.001653 
L 397.494022 -90.654545 
L 399.300747 -90.654545 
L 400.20411 -90.654545 
L 401.107472 -90.654545 
L 402.010834 -90.654545 
L 402.914197 -90.654545 
L 407.431009 -90.654545 
L 408.334371 -91.34876 
L 411.044458 -90.654545 
L 411.947821 -90.654545 
L 412.851183 -90.654545 
L 413.754545 -90.654545 
L 417.367995 -90.654545 
L 419.17472 -90.654545 
L 421.884807 -90.654545 
L 424.594894 -90.654545 
L 429.111706 -90.654545 
L 434.53188 -90.654545 
L 435.435243 -90.654545 
L 438.14533 -90.654545 
L 440.855417 -91.001653 
L 445.372229 -90.654545 
L 448.082316 -90.654545 
L 449.889041 -90.654545 
L 451.695766 -90.654545 
L 459.826027 -90.654545 
L 460.72939 -90.654545 
L 461.632752 -90.654545 
L 462.536115 -90.654545 
L 466.149564 -91.001653 
L 467.956289 -90.654545 
L 473.376463 -90.654545 
L 481.506725 -90.654545 
L 496.863885 -90.654545 
L 497.767248 -90.654545 
L 507.704234 -90.654545 
L 518.544583 -90.654545 
L 520.351308 -90.654545 
L 521.25467 -91.001653 
L 549.258904 -90.654545 
L 561.002615 -90.654545 
L 571.842964 -90.654545 
L 581.77995 -90.654545 
L 589.910212 -90.654545 
L 641.401868 -90.654545 
L 698.313699 -90.654545 
L 739.868369 -90.654545 
L 743.481818 -90.654545 
L 809.427273 -90.654545 
L 809.427273 -90.654545 
L 809.427273 -90.654545 
L 743.481818 -90.654545 
L 739.868369 -90.654545 
L 698.313699 -90.654545 
L 641.401868 -90.654545 
L 589.910212 -90.654545 
L 581.77995 -90.654545 
L 571.842964 -90.654545 
L 561.002615 -90.654545 
L 549.258904 -90.654545 
L 521.25467 -90.654545 
L 520.351308 -90.654545 
L 518.544583 -90.654545 
L 507.704234 -90.654545 
L 497.767248 -90.654545 
L 496.863885 -90.654545 
L 481.506725 -90.654545 
L 473.376463 -90.654545 
L 467.956289 -90.654545 
L 466.149564 -90.654545 
L 462.536115 -90.654545 
L 461.632752 -90.654545 
L 460.72939 -90.654545 
L 459.826027 -90.654545 
L 451.695766 -90.654545 
L 449.889041 -90.654545 
L 448.082316 -90.654545 
L 445.372229 -90.654545 
L 440.855417 -90.654545 
L 438.14533 -90.654545 
L 435.435243 -90.654545 
L 434.53188 -90.654545 
L 429.111706 -90.654545 
L 424.594894 -90.654545 
L 421.884807 -90.654545 
L 419.17472 -90.654545 
L 417.367995 -90.654545 
L 413.754545 -90.654545 
L 412.851183 -90.654545 
L 411.947821 -90.654545 
L 411.044458 -90.654545 
L 408.334371 -90.654545 
L 407.431009 -90.654545 
L 402.914197 -90.654545 
L 402.010834 -90.654545 
L 401.107472 -90.654545 
L 400.20411 -90.654545 
L 399.300747 -90.654545 
L 397.494022 -90.654545 
L 396.59066 -90.654545 
L 395.687298 -90.654545 
L 394.783935 -90.654545 
L 393.880573 -90.654545 
L 391.170486 -90.654545 
L 388.460399 -90.654545 
L 387.557036 -90.654545 
L 386.653674 -90.654545 
L 383.040224 -90.654545 
L 380.330137 -90.654545 
L 379.426775 -90.654545 
L 378.523412 -90.654545 
L 376.716687 -90.654545 
L 374.0066 -90.654545 
L 372.199875 -90.654545 
L 371.296513 -90.654545 
L 369.489788 -90.654545 
L 368.586426 -90.654545 
L 367.683064 -90.654545 
L 366.779701 -90.654545 
L 364.972976 -90.654545 
L 364.069614 -90.654545 
L 363.166252 -90.654545 
L 361.359527 -90.654545 
L 360.456164 -90.654545 
L 359.552802 -90.654545 
L 358.64944 -90.654545 
L 357.746077 -90.654545 
L 356.842715 -90.654545 
L 354.132628 -90.654545 
L 353.229265 -90.654545 
L 352.325903 -90.654545 
L 350.519178 -90.654545 
L 348.712453 -90.654545 
L 347.809091 -90.654545 
L 346.905729 -90.654545 
L 345.099004 -90.654545 
L 344.195641 -90.654545 
L 343.292279 -90.654545 
L 342.388917 -90.654545 
L 341.485554 -90.654545 
L 339.678829 -90.654545 
L 337.872105 -90.654545 
L 336.968742 -90.654545 
L 336.06538 -90.654545 
L 335.162017 -90.654545 
L 334.258655 -90.654545 
L 333.355293 -90.654545 
L 332.45193 -90.654545 
L 331.548568 -90.654545 
L 330.645205 -90.654545 
L 329.741843 -90.654545 
L 328.838481 -90.654545 
L 327.935118 -90.654545 
L 327.031756 -90.654545 
L 326.128394 -90.654545 
L 325.225031 -90.654545 
L 324.321669 -90.654545 
L 323.418306 -90.654545 
L 322.514944 -90.654545 
L 321.611582 -90.654545 
L 320.708219 -90.654545 
L 319.804857 -90.654545 
L 318.901494 -90.654545 
L 317.998132 -90.654545 
L 317.09477 -90.654545 
L 316.191407 -90.654545 
L 315.288045 -90.654545 
L 314.384682 -90.654545 
L 313.48132 -90.654545 
L 312.577958 -90.654545 
L 311.674595 -90.654545 
L 310.771233 -90.654545 
L 309.86787 -90.654545 
L 308.964508 -90.654545 
L 308.061146 -90.654545 
L 307.157783 -90.654545 
L 306.254421 -90.654545 
L 305.351059 -90.654545 
L 304.447696 -90.654545 
L 303.544334 -90.654545 
L 302.640971 -90.654545 
L 301.737609 -90.654545 
L 299.930884 -90.654545 
L 299.027522 -90.654545 
L 298.124159 -90.654545 
L 297.220797 -90.654545 
L 296.317435 -90.654545 
L 295.414072 -90.654545 
L 294.51071 -90.654545 
L 293.607347 -90.654545 
L 292.703985 -90.654545 
L 291.800623 -90.654545 
L 290.89726 -90.654545 
L 289.993898 -90.654545 
L 289.090535 -90.654545 
L 288.187173 -90.654545 
L 287.283811 -90.654545 
L 286.380448 -90.654545 
L 285.477086 -90.654545 
L 284.573724 -90.654545 
L 283.670361 -90.654545 
L 282.766999 -90.654545 
L 281.863636 -90.654545 
L 280.960274 -90.654545 
L 280.056912 -90.654545 
L 279.153549 -90.654545 
L 278.250187 -90.654545 
L 277.346824 -90.654545 
L 276.443462 -90.654545 
L 275.5401 -90.654545 
L 274.636737 -90.654545 
L 273.733375 -90.654545 
L 272.830012 -90.654545 
L 271.92665 -90.654545 
L 271.023288 -90.654545 
L 270.119925 -90.654545 
L 269.216563 -90.654545 
L 268.3132 -90.654545 
L 267.409838 -90.654545 
L 266.506476 -90.654545 
L 265.603113 -90.654545 
L 263.796389 -90.654545 
L 262.893026 -90.654545 
L 261.989664 -90.654545 
L 261.086301 -90.654545 
L 260.182939 -90.654545 
L 259.279577 -90.654545 
L 257.472852 -90.654545 
L 256.569489 -90.654545 
L 255.666127 -90.654545 
L 254.762765 -90.654545 
L 253.859402 -90.654545 
L 252.95604 -90.654545 
L 252.052677 -90.654545 
L 249.34259 -90.654545 
L 247.535866 -90.654545 
L 246.632503 -90.654545 
L 245.729141 -90.654545 
L 244.825778 -90.654545 
L 242.115691 -90.654545 
L 241.212329 -90.654545 
L 240.308966 -90.654545 
L 239.405604 -90.654545 
L 238.502242 -90.654545 
L 237.598879 -90.654545 
L 236.695517 -90.654545 
L 235.792154 -90.654545 
L 234.888792 -90.654545 
L 233.98543 -90.654545 
L 233.082067 -90.654545 
L 232.178705 -90.654545 
L 231.275342 -90.654545 
L 230.37198 -90.654545 
L 229.468618 -90.654545 
L 228.565255 -90.654545 
L 227.661893 -90.654545 
L 226.758531 -90.654545 
L 225.855168 -90.654545 
L 224.951806 -90.654545 
L 224.048443 -90.654545 
L 223.145081 -90.654545 
L 222.241719 -90.654545 
L 221.338356 -90.654545 
L 220.434994 -90.654545 
L 219.531631 -90.654545 
L 218.628269 -90.654545 
L 217.724907 -90.654545 
L 216.821544 -90.654545 
L 215.918182 -90.654545 
L 215.014819 -90.654545 
L 214.111457 -90.654545 
L 213.208095 -90.654545 
L 212.304732 -90.654545 
L 211.40137 -90.654545 
L 210.498007 -90.654545 
L 209.594645 -90.654545 
L 208.691283 -90.654545 
L 207.78792 -90.654545 
L 206.884558 -90.654545 
L 205.981196 -90.654545 
L 205.077833 -90.654545 
L 204.174471 -90.654545 
L 203.271108 -90.654545 
L 202.367746 -90.654545 
L 201.464384 -90.654545 
L 200.561021 -90.654545 
L 199.657659 -90.654545 
L 198.754296 -90.654545 
L 197.850934 -90.654545 
L 196.947572 -90.654545 
L 196.044209 -90.654545 
L 195.140847 -90.654545 
L 194.237484 -90.654545 
L 193.334122 -90.654545 
L 192.43076 -90.654545 
L 191.527397 -90.654545 
L 190.624035 -90.654545 
L 189.720672 -90.654545 
L 188.81731 -90.654545 
L 187.913948 -90.654545 
L 187.010585 -90.654545 
L 186.107223 -90.654545 
L 185.203861 -90.654545 
L 184.300498 -90.654545 
L 183.397136 -90.654545 
L 182.493773 -90.654545 
L 179.783686 -90.654545 
L 178.880324 -90.654545 
L 177.073599 -90.654545 
L 176.170237 -90.654545 
z
" style="stroke: #0000ff"/>
    </defs>
    <g clip-path="url(#pe926d021ed)">
     <use xlink:href="#m4ac13332da" x="0" y="720" style="fill: #0000ff; stroke: #0000ff"/>
    </g>
   </g>
   <g id="matplotlib.axis_3">
    <g id="xtick_9">
     <g id="line2d_18">
      <g>
       <use xlink:href="#m211e89e15d" x="149.972727" y="640.8" style="stroke: #000000; stroke-width: 0.8"/>
      </g>
     </g>
     <g id="text_20">
      <!-- 0 -->
      <g transform="translate(146.791477 655.398438)scale(0.1 -0.1)">
       <use xlink:href="#DejaVuSans-30"/>
      </g>
     </g>
    </g>
    <g id="xtick_10">
     <g id="line2d_19">
      <g>
       <use xlink:href="#m211e89e15d" x="240.308966" y="640.8" style="stroke: #000000; stroke-width: 0.8"/>
      </g>
     </g>
     <g id="text_21">
      <!-- 1 -->
      <g transform="translate(237.127716 655.398438)scale(0.1 -0.1)">
       <use xlink:href="#DejaVuSans-31"/>
      </g>
     </g>
    </g>
    <g id="xtick_11">
     <g id="line2d_20">
      <g>
       <use xlink:href="#m211e89e15d" x="330.645205" y="640.8" style="stroke: #000000; stroke-width: 0.8"/>
      </g>
     </g>
     <g id="text_22">
      <!-- 2 -->
      <g transform="translate(327.463955 655.398438)scale(0.1 -0.1)">
       <use xlink:href="#DejaVuSans-32"/>
      </g>
     </g>
    </g>
    <g id="xtick_12">
     <g id="line2d_21">
      <g>
       <use xlink:href="#m211e89e15d" x="420.981445" y="640.8" style="stroke: #000000; stroke-width: 0.8"/>
      </g>
     </g>
     <g id="text_23">
      <!-- 3 -->
      <g transform="translate(417.800195 655.398438)scale(0.1 -0.1)">
       <use xlink:href="#DejaVuSans-33"/>
      </g>
     </g>
    </g>
    <g id="xtick_13">
     <g id="line2d_22">
      <g>
       <use xlink:href="#m211e89e15d" x="511.317684" y="640.8" style="stroke: #000000; stroke-width: 0.8"/>
      </g>
     </g>
     <g id="text_24">
      <!-- 4 -->
      <g transform="translate(508.136434 655.398438)scale(0.1 -0.1)">
       <use xlink:href="#DejaVuSans-34"/>
      </g>
     </g>
    </g>
    <g id="xtick_14">
     <g id="line2d_23">
      <g>
       <use xlink:href="#m211e89e15d" x="601.653923" y="640.8" style="stroke: #000000; stroke-width: 0.8"/>
      </g>
     </g>
     <g id="text_25">
      <!-- 5 -->
      <g transform="translate(598.472673 655.398438)scale(0.1 -0.1)">
       <use xlink:href="#DejaVuSans-35"/>
      </g>
     </g>
    </g>
    <g id="xtick_15">
     <g id="line2d_24">
      <g>
       <use xlink:href="#m211e89e15d" x="691.990162" y="640.8" style="stroke: #000000; stroke-width: 0.8"/>
      </g>
     </g>
     <g id="text_26">
      <!-- 6 -->
      <g transform="translate(688.808912 655.398438)scale(0.1 -0.1)">
       <use xlink:href="#DejaVuSans-36"/>
      </g>
     </g>
    </g>
    <g id="xtick_16">
     <g id="line2d_25">
      <g>
       <use xlink:href="#m211e89e15d" x="782.326401" y="640.8" style="stroke: #000000; stroke-width: 0.8"/>
      </g>
     </g>
     <g id="text_27">
      <!-- 7 -->
      <g transform="translate(779.145151 655.398438)scale(0.1 -0.1)">
       <use xlink:href="#DejaVuSans-37"/>
      </g>
     </g>
    </g>
    <g id="text_28">
     <!-- ratio -->
     <g transform="translate(468.171875 669.076563)scale(0.1 -0.1)">
      <use xlink:href="#DejaVuSans-72"/>
      <use xlink:href="#DejaVuSans-61" x="41.113281"/>
      <use xlink:href="#DejaVuSans-74" x="102.392578"/>
      <use xlink:href="#DejaVuSans-69" x="141.601562"/>
      <use xlink:href="#DejaVuSans-6f" x="169.384766"/>
     </g>
    </g>
   </g>
   <g id="matplotlib.axis_4">
    <g id="ytick_8">
     <g id="line2d_26">
      <g>
       <use xlink:href="#m1d0259098f" x="117" y="629.345455" style="stroke: #000000; stroke-width: 0.8"/>
      </g>
     </g>
     <g id="text_29">
      <!-- 0 -->
      <g transform="translate(103.6375 633.144673)scale(0.1 -0.1)">
       <use xlink:href="#DejaVuSans-30"/>
      </g>
     </g>
    </g>
    <g id="ytick_9">
     <g id="line2d_27">
      <g>
       <use xlink:href="#m1d0259098f" x="117" y="594.634711" style="stroke: #000000; stroke-width: 0.8"/>
      </g>
     </g>
     <g id="text_30">
      <!-- 100 -->
      <g transform="translate(90.9125 598.433929)scale(0.1 -0.1)">
       <use xlink:href="#DejaVuSans-31"/>
       <use xlink:href="#DejaVuSans-30" x="63.623047"/>
       <use xlink:href="#DejaVuSans-30" x="127.246094"/>
      </g>
     </g>
    </g>
    <g id="ytick_10">
     <g id="line2d_28">
      <g>
       <use xlink:href="#m1d0259098f" x="117" y="559.923967" style="stroke: #000000; stroke-width: 0.8"/>
      </g>
     </g>
     <g id="text_31">
      <!-- 200 -->
      <g transform="translate(90.9125 563.723186)scale(0.1 -0.1)">
       <use xlink:href="#DejaVuSans-32"/>
       <use xlink:href="#DejaVuSans-30" x="63.623047"/>
       <use xlink:href="#DejaVuSans-30" x="127.246094"/>
      </g>
     </g>
    </g>
    <g id="ytick_11">
     <g id="line2d_29">
      <g>
       <use xlink:href="#m1d0259098f" x="117" y="525.213223" style="stroke: #000000; stroke-width: 0.8"/>
      </g>
     </g>
     <g id="text_32">
      <!-- 300 -->
      <g transform="translate(90.9125 529.012442)scale(0.1 -0.1)">
       <use xlink:href="#DejaVuSans-33"/>
       <use xlink:href="#DejaVuSans-30" x="63.623047"/>
       <use xlink:href="#DejaVuSans-30" x="127.246094"/>
      </g>
     </g>
    </g>
    <g id="ytick_12">
     <g id="line2d_30">
      <g>
       <use xlink:href="#m1d0259098f" x="117" y="490.502479" style="stroke: #000000; stroke-width: 0.8"/>
      </g>
     </g>
     <g id="text_33">
      <!-- 400 -->
      <g transform="translate(90.9125 494.301698)scale(0.1 -0.1)">
       <use xlink:href="#DejaVuSans-34"/>
       <use xlink:href="#DejaVuSans-30" x="63.623047"/>
       <use xlink:href="#DejaVuSans-30" x="127.246094"/>
      </g>
     </g>
    </g>
    <g id="ytick_13">
     <g id="line2d_31">
      <g>
       <use xlink:href="#m1d0259098f" x="117" y="455.791736" style="stroke: #000000; stroke-width: 0.8"/>
      </g>
     </g>
     <g id="text_34">
      <!-- 500 -->
      <g transform="translate(90.9125 459.590954)scale(0.1 -0.1)">
       <use xlink:href="#DejaVuSans-35"/>
       <use xlink:href="#DejaVuSans-30" x="63.623047"/>
       <use xlink:href="#DejaVuSans-30" x="127.246094"/>
      </g>
     </g>
    </g>
    <g id="ytick_14">
     <g id="line2d_32">
      <g>
       <use xlink:href="#m1d0259098f" x="117" y="421.080992" style="stroke: #000000; stroke-width: 0.8"/>
      </g>
     </g>
     <g id="text_35">
      <!-- 600 -->
      <g transform="translate(90.9125 424.88021)scale(0.1 -0.1)">
       <use xlink:href="#DejaVuSans-36"/>
       <use xlink:href="#DejaVuSans-30" x="63.623047"/>
       <use xlink:href="#DejaVuSans-30" x="127.246094"/>
      </g>
     </g>
    </g>
    <g id="text_36">
     <!-- number of images -->
     <g transform="translate(84.832812 560.490625)rotate(-90)scale(0.1 -0.1)">
      <use xlink:href="#DejaVuSans-6e"/>
      <use xlink:href="#DejaVuSans-75" x="63.378906"/>
      <use xlink:href="#DejaVuSans-6d" x="126.757812"/>
      <use xlink:href="#DejaVuSans-62" x="224.169922"/>
      <use xlink:href="#DejaVuSans-65" x="287.646484"/>
      <use xlink:href="#DejaVuSans-72" x="349.169922"/>
      <use xlink:href="#DejaVuSans-20" x="390.283203"/>
      <use xlink:href="#DejaVuSans-6f" x="422.070312"/>
      <use xlink:href="#DejaVuSans-66" x="483.251953"/>
      <use xlink:href="#DejaVuSans-20" x="518.457031"/>
      <use xlink:href="#DejaVuSans-69" x="550.244141"/>
      <use xlink:href="#DejaVuSans-6d" x="578.027344"/>
      <use xlink:href="#DejaVuSans-61" x="675.439453"/>
      <use xlink:href="#DejaVuSans-67" x="736.71875"/>
      <use xlink:href="#DejaVuSans-65" x="800.195312"/>
      <use xlink:href="#DejaVuSans-73" x="861.71875"/>
     </g>
    </g>
   </g>
   <g id="line2d_33">
    <path d="M 149.972727 482.171901 
L 150.87609 436.700826 
L 151.779452 443.295868 
L 152.682814 428.02314 
L 153.586177 433.923967 
L 154.489539 434.618182 
L 155.392902 413.097521 
L 156.296264 416.221488 
L 157.199626 421.775207 
L 158.102989 407.543802 
L 159.006351 400.254545 
L 159.909714 405.461157 
L 160.813076 422.469421 
L 161.716438 404.419835 
L 162.619801 407.890909 
L 163.523163 431.494215 
L 164.426526 408.932231 
L 165.329888 417.609917 
L 166.23325 422.122314 
L 167.136613 405.808264 
L 168.039975 448.502479 
L 168.943337 437.742149 
L 169.8467 481.824793 
L 170.750062 491.196694 
L 171.653425 522.089256 
L 172.556787 570.684298 
L 173.460149 576.238017 
L 174.363512 571.378512 
L 175.266874 577.626446 
L 176.170237 575.890909 
L 177.073599 582.138843 
L 177.976961 591.163636 
L 178.880324 580.403306 
L 179.783686 586.998347 
L 180.687049 596.717355 
L 181.590411 597.758678 
L 182.493773 601.57686 
L 183.397136 602.271074 
L 184.300498 596.370248 
L 185.203861 600.535537 
L 186.107223 611.990083 
L 187.010585 614.419835 
L 187.913948 617.543802 
L 188.81731 617.890909 
L 189.720672 615.808264 
L 190.624035 620.320661 
L 191.527397 620.320661 
L 192.43076 623.097521 
L 193.334122 626.915702 
L 194.237484 626.568595 
L 195.140847 623.444628 
L 196.044209 625.87438 
L 196.947572 626.221488 
L 197.850934 626.568595 
L 198.754296 627.609917 
L 199.657659 625.180165 
L 200.561021 628.65124 
L 201.464384 627.957025 
L 202.367746 625.527273 
L 203.271108 626.221488 
L 204.174471 628.65124 
L 205.077833 627.609917 
L 205.981196 627.609917 
L 206.884558 627.609917 
L 207.78792 628.304132 
L 208.691283 628.304132 
L 209.594645 628.304132 
L 210.498007 628.65124 
L 211.40137 627.609917 
L 212.304732 628.998347 
L 214.111457 629.345455 
L 215.014819 628.998347 
L 215.918182 629.345455 
L 216.821544 629.345455 
L 217.724907 628.304132 
L 219.531631 629.345455 
L 220.434994 629.345455 
L 221.338356 629.345455 
L 224.048443 629.345455 
L 227.661893 629.345455 
L 228.565255 629.345455 
L 237.598879 629.345455 
L 245.729141 629.345455 
L 253.859402 629.345455 
" clip-path="url(#pe926d021ed)" style="fill: none; stroke: #ffff00; stroke-width: 1.5; stroke-linecap: square"/>
   </g>
   <g id="line2d_34">
    <path d="M 176.170237 629.345455 
L 183.397136 629.345455 
L 184.300498 628.65124 
L 185.203861 628.998347 
L 187.010585 628.998347 
L 187.913948 628.304132 
L 188.81731 629.345455 
L 189.720672 627.957025 
L 191.527397 628.65124 
L 192.43076 629.345455 
L 193.334122 627.609917 
L 194.237484 629.345455 
L 195.140847 626.915702 
L 196.044209 629.345455 
L 196.947572 627.957025 
L 198.754296 628.65124 
L 199.657659 628.304132 
L 200.561021 627.26281 
L 201.464384 628.304132 
L 202.367746 627.609917 
L 203.271108 628.65124 
L 204.174471 628.304132 
L 205.077833 627.609917 
L 205.981196 627.609917 
L 206.884558 626.915702 
L 207.78792 626.915702 
L 208.691283 626.221488 
L 209.594645 627.26281 
L 210.498007 625.87438 
L 211.40137 626.915702 
L 212.304732 628.304132 
L 213.208095 625.87438 
L 214.111457 625.527273 
L 215.014819 627.26281 
L 215.918182 626.568595 
L 216.821544 623.097521 
L 217.724907 627.957025 
L 218.628269 625.180165 
L 219.531631 624.48595 
L 220.434994 626.221488 
L 221.338356 623.097521 
L 222.241719 626.568595 
L 223.145081 623.791736 
L 224.048443 625.527273 
L 224.951806 622.403306 
L 225.855168 625.180165 
L 226.758531 620.667769 
L 227.661893 625.527273 
L 228.565255 619.973554 
L 229.468618 623.097521 
L 230.37198 623.444628 
L 231.275342 622.403306 
L 232.178705 622.056198 
L 233.082067 624.833058 
L 233.98543 623.444628 
L 234.888792 624.48595 
L 235.792154 624.833058 
L 236.695517 626.221488 
L 237.598879 618.585124 
L 238.502242 617.890909 
L 239.405604 611.642975 
L 240.308966 596.370248 
L 241.212329 624.833058 
L 242.115691 628.65124 
L 244.825778 628.998347 
L 245.729141 628.65124 
L 246.632503 629.345455 
L 247.535866 628.304132 
L 249.34259 628.65124 
L 252.052677 628.304132 
L 252.95604 628.998347 
L 253.859402 628.998347 
L 254.762765 627.957025 
L 255.666127 628.304132 
L 256.569489 628.304132 
L 257.472852 629.345455 
L 259.279577 628.65124 
L 260.182939 628.65124 
L 261.086301 629.345455 
L 261.989664 628.998347 
L 262.893026 627.957025 
L 263.796389 628.998347 
L 265.603113 628.304132 
L 266.506476 628.304132 
L 267.409838 628.65124 
L 268.3132 627.609917 
L 269.216563 628.998347 
L 270.119925 628.65124 
L 271.023288 628.65124 
L 272.830012 627.957025 
L 273.733375 628.65124 
L 275.5401 628.65124 
L 276.443462 627.609917 
L 277.346824 627.957025 
L 278.250187 627.609917 
L 279.153549 627.609917 
L 280.056912 626.915702 
L 280.960274 627.26281 
L 281.863636 628.998347 
L 282.766999 625.87438 
L 283.670361 626.221488 
L 284.573724 626.915702 
L 285.477086 626.915702 
L 286.380448 624.138843 
L 287.283811 627.26281 
L 288.187173 626.221488 
L 289.090535 627.957025 
L 289.993898 627.26281 
L 290.89726 625.87438 
L 291.800623 626.915702 
L 292.703985 625.87438 
L 293.607347 627.957025 
L 294.51071 627.609917 
L 296.317435 626.221488 
L 297.220797 629.345455 
L 298.124159 627.957025 
L 299.027522 628.65124 
L 299.930884 628.304132 
L 301.737609 627.957025 
L 302.640971 628.65124 
L 303.544334 626.915702 
L 304.447696 627.957025 
L 305.351059 627.26281 
L 306.254421 627.957025 
L 307.157783 628.304132 
L 308.061146 628.998347 
L 308.964508 627.957025 
L 309.86787 628.65124 
L 310.771233 628.304132 
L 311.674595 628.998347 
L 312.577958 626.568595 
L 313.48132 628.65124 
L 314.384682 628.998347 
L 315.288045 628.65124 
L 316.191407 628.65124 
L 317.09477 628.304132 
L 317.998132 628.65124 
L 318.901494 628.304132 
L 319.804857 628.304132 
L 320.708219 629.345455 
L 321.611582 627.957025 
L 322.514944 628.65124 
L 323.418306 628.304132 
L 324.321669 628.304132 
L 325.225031 628.998347 
L 326.128394 628.998347 
L 327.031756 628.65124 
L 327.935118 627.609917 
L 328.838481 628.65124 
L 329.741843 628.65124 
L 330.645205 627.957025 
L 331.548568 628.65124 
L 334.258655 628.65124 
L 335.162017 629.345455 
L 336.06538 628.65124 
L 336.968742 628.998347 
L 337.872105 628.65124 
L 339.678829 628.65124 
L 341.485554 628.304132 
L 342.388917 628.304132 
L 343.292279 628.998347 
L 344.195641 629.345455 
L 347.809091 629.345455 
L 348.712453 628.998347 
L 350.519178 629.345455 
L 353.229265 629.345455 
L 354.132628 628.998347 
L 356.842715 629.345455 
L 357.746077 629.345455 
L 358.64944 628.998347 
L 359.552802 629.345455 
L 363.166252 629.345455 
L 364.069614 628.65124 
L 364.972976 629.345455 
L 366.779701 629.345455 
L 367.683064 628.65124 
L 368.586426 629.345455 
L 386.653674 629.345455 
L 387.557036 628.304132 
L 388.460399 629.345455 
L 391.170486 629.345455 
L 393.880573 628.65124 
L 394.783935 628.998347 
L 396.59066 628.998347 
L 397.494022 629.345455 
L 407.431009 629.345455 
L 408.334371 628.65124 
L 411.044458 629.345455 
L 438.14533 629.345455 
L 440.855417 628.998347 
L 445.372229 629.345455 
L 462.536115 629.345455 
L 466.149564 628.998347 
L 467.956289 629.345455 
L 520.351308 629.345455 
L 521.25467 628.998347 
L 549.258904 629.345455 
L 809.427273 629.345455 
L 809.427273 629.345455 
" clip-path="url(#pe926d021ed)" style="fill: none; stroke: #0000ff; stroke-width: 1.5; stroke-linecap: square"/>
   </g>
   <g id="patch_9">
    <path d="M 117 640.8 
L 117 388.8 
" style="fill: none; stroke: #000000; stroke-width: 0.8; stroke-linejoin: miter; stroke-linecap: square"/>
   </g>
   <g id="patch_10">
    <path d="M 842.4 640.8 
L 842.4 388.8 
" style="fill: none; stroke: #000000; stroke-width: 0.8; stroke-linejoin: miter; stroke-linecap: square"/>
   </g>
   <g id="patch_11">
    <path d="M 117 640.8 
L 842.4 640.8 
" style="fill: none; stroke: #000000; stroke-width: 0.8; stroke-linejoin: miter; stroke-linecap: square"/>
   </g>
   <g id="patch_12">
    <path d="M 117 388.8 
L 842.4 388.8 
" style="fill: none; stroke: #000000; stroke-width: 0.8; stroke-linejoin: miter; stroke-linecap: square"/>
   </g>
   <g id="legend_2">
    <g id="patch_13">
     <path d="M 765.215625 426.15625 
L 835.4 426.15625 
Q 837.4 426.15625 837.4 424.15625 
L 837.4 395.8 
Q 837.4 393.8 835.4 393.8 
L 765.215625 393.8 
Q 763.215625 393.8 763.215625 395.8 
L 763.215625 424.15625 
Q 763.215625 426.15625 765.215625 426.15625 
z
" style="fill: #ffffff; opacity: 0.8; stroke: #cccccc; stroke-linejoin: miter"/>
    </g>
    <g id="line2d_35">
     <path d="M 767.215625 401.898438 
L 777.215625 401.898438 
L 787.215625 401.898438 
" style="fill: none; stroke: #ffff00; stroke-width: 1.5; stroke-linecap: square"/>
    </g>
    <g id="text_37">
     <!-- mscoco -->
     <g transform="translate(795.215625 405.398438)scale(0.1 -0.1)">
      <use xlink:href="#DejaVuSans-6d"/>
      <use xlink:href="#DejaVuSans-73" x="97.412109"/>
      <use xlink:href="#DejaVuSans-63" x="149.511719"/>
      <use xlink:href="#DejaVuSans-6f" x="204.492188"/>
      <use xlink:href="#DejaVuSans-63" x="265.673828"/>
      <use xlink:href="#DejaVuSans-6f" x="320.654297"/>
     </g>
    </g>
    <g id="line2d_36">
     <path d="M 767.215625 416.576563 
L 777.215625 416.576563 
L 787.215625 416.576563 
" style="fill: none; stroke: #0000ff; stroke-width: 1.5; stroke-linecap: square"/>
    </g>
    <g id="text_38">
     <!-- emodb -->
     <g transform="translate(795.215625 420.076563)scale(0.1 -0.1)">
      <use xlink:href="#DejaVuSans-65"/>
      <use xlink:href="#DejaVuSans-6d" x="61.523438"/>
      <use xlink:href="#DejaVuSans-6f" x="158.935547"/>
      <use xlink:href="#DejaVuSans-64" x="220.117188"/>
      <use xlink:href="#DejaVuSans-62" x="283.59375"/>
     </g>
    </g>
   </g>
  </g>
 </g>
 <defs>
  <clipPath id="pc2e620182d">
   <rect x="117" y="86.4" width="725.4" height="252"/>
  </clipPath>
  <clipPath id="pe926d021ed">
   <rect x="117" y="388.8" width="725.4" height="252"/>
  </clipPath>
 </defs>
</svg>
